<?xml version="1.0" encoding="UTF-8"?>
<svg version="1.1" xmlns="http://www.w3.org/2000/svg" width="668" height="374">
<path d="M0 0 C3.51152247 1.61125875 4.77389552 2.87102271 6.6875 6.25 C9.93105062 11.37052916 13.80364378 14.02927121 19 17 C21.85896906 18.7017673 24.50685606 20.37687702 27.18359375 22.3671875 C30.76151702 24.92941526 34.40270743 26.82678939 38.4375 28.5625 C39.1190918 28.85914551 39.80068359 29.15579102 40.50292969 29.46142578 C47.79548943 32.51695825 55.29586569 34.31811152 63 36 C63.66515625 36.26039062 64.3303125 36.52078125 65.015625 36.7890625 C67.77090754 37.08194686 69.61241313 35.85618592 72.08407593 34.76239014 C77.44124436 32.63064993 83.5019345 32.16360461 89.1875 31.3125 C89.91253723 31.20260742 90.63757446 31.09271484 91.38458252 30.97949219 C111.70315514 27.95935194 131.73645011 27.65204324 151.9453125 31.61962891 C156.30685705 32.42705362 160.71795737 32.91612714 165.1171875 33.47265625 C168 34 168 34 170.640625 35.06640625 C180.47019584 38.95592187 196.35397683 31.50683138 205.625 27.5 C206.28765869 27.21560059 206.95031738 26.93120117 207.63305664 26.63818359 C211.57321065 24.86670408 214.71007223 22.77765528 218 20 C219.14704332 19.30010916 220.31190084 18.62767503 221.5 18 C228.83218404 13.92833164 233.85955846 8.38591182 238.6328125 1.609375 C239.08398438 1.07828125 239.53515625 0.5471875 240 0 C240.66 0 241.32 0 242 0 C245.35224564 10.05673693 242.35596101 21.91351799 237.875 31.125 C235.13992666 36.52037384 231.82034519 40.99532115 227.6015625 45.328125 C225.91476183 46.92399126 225.91476183 46.92399126 225 49 C231.31423592 44.91337523 235.20243579 40.4731208 239 34 C239.99 34.33 240.98 34.66 242 35 C239.23746478 47.66723467 236.04276778 57.90053444 226.5703125 66.9921875 C224.94727552 68.5391513 224.94727552 68.5391513 223 71 C223.09527437 73.96938462 223.99795565 74.99715252 225.75 77.4375 C229.22061528 82.40994516 230.98746377 88.32830698 233 94 C233.24588867 94.6909375 233.49177734 95.381875 233.74511719 96.09375 C242.52704065 121.47605589 245.06927941 153.1454898 233.03369141 177.99511719 C223.79834694 194.80939684 208.74800098 208.83599946 192 218 C191.175 218.515625 190.35 219.03125 189.5 219.5625 C187.1243948 220.92847299 184.72097942 221.95037219 182.1953125 223 C178.18909365 224.82489684 174.35880137 226.98600665 170.49609375 229.09375 C168.14012068 230.3783476 165.78158336 231.6511304 163.41015625 232.90625 C162.26417969 233.5146875 161.11820313 234.123125 159.9375 234.75 C158.89464844 235.30171875 157.85179687 235.8534375 156.77734375 236.421875 C154.04966268 237.89380619 154.04966268 237.89380619 151.92578125 239.55859375 C149.79572795 241.15289328 147.66200346 242.19483598 145.25 243.3125 C140.35529608 245.70578675 136.23093742 248.59253362 132 252 C131.0925 252.680625 130.185 253.36125 129.25 254.0625 C126.80961937 256.16393888 124.92889336 258.42814219 123 261 C121.35 260.67 119.7 260.34 118 260 C118 259.34 118 258.68 118 258 C117.01 257.67 116.02 257.34 115 257 C113.31126121 255.35570171 111.64694485 253.68615782 110 252 C108.36739286 250.62517293 106.69774938 249.29352333 105 248 C104.48695313 247.5978125 103.97390625 247.195625 103.4453125 246.78125 C99.54246908 243.83163562 95.61783708 241.85515028 91.1171875 239.9609375 C88.18758002 238.63126326 85.66573339 236.79528983 83 235 C81.50955545 234.23118596 80.00824556 233.48327711 78.5 232.75 C74.16900711 230.64338412 70.02778392 228.30589791 65.875 225.875 C62.15678848 223.70276333 58.52433991 221.65605834 54.4375 220.25 C50.89497006 218.9618073 48.82646393 217.44450935 46 215 C45.24589844 214.54882812 44.49179687 214.09765625 43.71484375 213.6328125 C31.08322938 206.03566889 20.9395942 196.36464326 13 184 C12.39720215 183.1332666 12.39720215 183.1332666 11.78222656 182.24902344 C8.36499887 177.1600219 6.65454419 172.31367679 5.25 166.375 C5.04246094 165.55515625 4.83492187 164.7353125 4.62109375 163.890625 C-2.59150945 134.94714634 1.89514749 101.76995112 17 76 C17.99 75.01 17.99 75.01 19 74 C18.85404273 69.76723922 15.86858571 67.80483936 13 65 C8.26697943 60.11430135 5.8852415 54.69099565 3.625 48.375 C3.36211182 47.64635742 3.09922363 46.91771484 2.82836914 46.16699219 C1.40796356 41.97782153 0.70307003 38.48222863 1 34 C4.62939015 35.20979672 4.99407937 36.18923355 6.9375 39.375 C8.95867439 42.6843362 10.76564923 44.83445197 14 47 C12.98957024 43.87685346 11.93494855 41.92591363 9.75 39.4375 C3.97150429 32.8507028 -0.15406721 24.03448501 -0.09765625 15.234375 C-0.09443359 14.34492187 -0.09121094 13.45546875 -0.08789062 12.5390625 C-0.07532227 11.15847656 -0.07532227 11.15847656 -0.0625 9.75 C-0.05798828 8.81414062 -0.05347656 7.87828125 -0.04882812 6.9140625 C-0.03706918 4.60930959 -0.02063426 2.30468773 0 0 Z " fill="#0C3043" transform="translate(213,60)"/>
<path d="M0 0 C3.51152247 1.61125875 4.77389552 2.87102271 6.6875 6.25 C9.93105062 11.37052916 13.80364378 14.02927121 19 17 C21.85896906 18.7017673 24.50685606 20.37687702 27.18359375 22.3671875 C30.76151702 24.92941526 34.40270743 26.82678939 38.4375 28.5625 C39.1190918 28.85914551 39.80068359 29.15579102 40.50292969 29.46142578 C47.79548943 32.51695825 55.29586569 34.31811152 63 36 C63.66515625 36.26039062 64.3303125 36.52078125 65.015625 36.7890625 C67.77090754 37.08194686 69.61241313 35.85618592 72.08407593 34.76239014 C77.44124436 32.63064993 83.5019345 32.16360461 89.1875 31.3125 C89.91253723 31.20260742 90.63757446 31.09271484 91.38458252 30.97949219 C111.70315514 27.95935194 131.73645011 27.65204324 151.9453125 31.61962891 C156.30685705 32.42705362 160.71795737 32.91612714 165.1171875 33.47265625 C168 34 168 34 170.640625 35.06640625 C180.47019584 38.95592187 196.35397683 31.50683138 205.625 27.5 C206.28765869 27.21560059 206.95031738 26.93120117 207.63305664 26.63818359 C211.57321065 24.86670408 214.71007223 22.77765528 218 20 C219.14704332 19.30010916 220.31190084 18.62767503 221.5 18 C228.83218404 13.92833164 233.85955846 8.38591182 238.6328125 1.609375 C239.08398438 1.07828125 239.53515625 0.5471875 240 0 C240.66 0 241.32 0 242 0 C245.35224564 10.05673693 242.35596101 21.91351799 237.875 31.125 C235.13992666 36.52037384 231.82034519 40.99532115 227.6015625 45.328125 C225.91476183 46.92399126 225.91476183 46.92399126 225 49 C231.31423592 44.91337523 235.20243579 40.4731208 239 34 C239.99 34.33 240.98 34.66 242 35 C239.23746478 47.66723467 236.04276778 57.90053444 226.5703125 66.9921875 C224.94727552 68.5391513 224.94727552 68.5391513 223 71 C223.09527437 73.96938462 223.99795565 74.99715252 225.75 77.4375 C229.22061528 82.40994516 230.98746377 88.32830698 233 94 C233.24588867 94.6909375 233.49177734 95.381875 233.74511719 96.09375 C242.52704065 121.47605589 245.06927941 153.1454898 233.03369141 177.99511719 C226.45311155 189.9760141 215.27465233 205.35851317 202 210 C202.226875 208.906875 202.45375 207.81375 202.6875 206.6875 C203.40146383 203.09468727 203.40146383 203.09468727 201.5625 201.0625 C201.046875 200.711875 200.53125 200.36125 200 200 C200.66 199.67 201.32 199.34 202 199 C202.1546875 197.7934375 202.1546875 197.7934375 202.3125 196.5625 C202.6528125 195.2940625 202.6528125 195.2940625 203 194 C205.4375 192.75 205.4375 192.75 208 192 C210.82059747 190.58970126 210.98101714 188.92108419 212 186 C212.35858516 184.67323492 212.7018576 183.34164079 213 182 C213.66 182 214.32 182 215 182 C215 181.01 215 180.02 215 179 C216.32 178.67 217.64 178.34 219 178 C218.67 180.64 218.34 183.28 218 186 C219.98 186 221.96 186 224 186 C224.27635161 181.97869285 224.27635161 181.97869285 224 178 C222.15811388 175.94729537 222.15811388 175.94729537 220 175 C220.45822468 171.53058454 220.89131683 168.32604951 222 165 C222.66 165 223.32 165 224 165 C224.66 163.35 225.32 161.7 226 160 C226.66 160 227.32 160 228 160 C228.33 160.99 228.66 161.98 229 163 C231.58777208 159.94419026 231.58777208 159.94419026 232 156 C232.66 156 233.32 156 234 156 C234 155.01 234 154.02 234 153 C234.66 153 235.32 153 236 153 C235.67 152.01 235.34 151.02 235 150 C235.66 150 236.32 150 237 150 C237 148.02 237 146.04 237 144 C234.78918149 143.89459074 234.78918149 143.89459074 232 145 C231.67 145.99 231.34 146.98 231 148 C230.01 147.67 229.02 147.34 228 147 C227.84430177 137.81380417 227.84430177 137.81380417 229 134 C229.66 133.67 230.32 133.34 231 133 C231.72693904 131.02111039 232.39816251 129.02045442 233 127 C232.34 126.34 231.68 125.68 231 125 C231 126.32 231 127.64 231 129 C230.01 128.67 229.02 128.34 228 128 C228.4794463 123.78087253 229.16625119 121.20336822 232 118 C231.67 117.34 231.34 116.68 231 116 C230.34 116 229.68 116 229 116 C229 116.99 229 117.98 229 119 C228.01 118.67 227.02 118.34 226 118 C225.09162237 115.52260646 225 113.66420516 225 111 C223.91666667 108.25 223.91666667 108.25 222 106 C219.42422657 105.80709475 219.42422657 105.80709475 217 106 C216.68546875 105.13117188 216.3709375 104.26234375 216.046875 103.3671875 C211.57084665 91.31426778 205.8434879 82.49730329 194.6875 75.5625 C189.2801726 74.4307338 184.47044038 76.17994671 179.75 78.8125 C176.94917307 81.04043051 174.45618671 83.39933172 172 86 C172.72445312 86.37511719 173.44890625 86.75023437 174.1953125 87.13671875 C189.03316253 94.99088737 189.03316253 94.99088737 192.3046875 103.2109375 C194.3119889 111.26269703 194.38801676 120.63798287 190.3828125 128.07421875 C185.5272525 134.83634045 179.02486803 138.93890168 171 141 C162.93241854 142.21893365 155.62365812 140.31032332 148.9921875 135.5625 C144.01794218 131.08352586 140.9642687 125.36350644 139 119 C138.87109375 115.66015625 138.87109375 115.66015625 139 113 C137.8553125 113.99 137.8553125 113.99 136.6875 115 C134 117 134 117 131 117 C131 117.66 131 118.32 131 119 C126.21773466 121.54375816 122.74245818 122.53225397 117.34375 121.71875 C113.00150265 120.38712748 109.58383882 117.71306674 106 115 C104.515 114.01 104.515 114.01 103 113 C103.12375 113.928125 103.2475 114.85625 103.375 115.8125 C103.375 122.65730967 98.69187286 129.37545266 94.375 134.4375 C89.35837765 138.99206502 81.60227246 141.08774603 74.9375 141.5 C66.72915424 140.45767038 59.96516878 138.05498522 54.3671875 131.80078125 C48.35797801 123.8857939 48.39793315 115.58928298 49 106 C50.12683454 100.78284482 53.05167688 97.48921578 57 94 C57.94875 93.13375 58.8975 92.2675 59.875 91.375 C63.2246781 88.82924465 66.09427196 87.48417666 70 86 C64.6991656 80.83414055 60.28229064 76.79072721 53 75 C47.94344775 75.10113104 45.00125699 77.02034054 41 80 C39.79923828 80.88558594 39.79923828 80.88558594 38.57421875 81.7890625 C30.94179064 88.34438012 26.83837388 97.2719382 25 107 C23.824375 107.185625 23.824375 107.185625 22.625 107.375 C19.85942178 107.79117993 19.85942178 107.79117993 18 110 C17.01 110 16.02 110 15 110 C15.3125 108.0625 15.3125 108.0625 16 106 C17.485 105.505 17.485 105.505 19 105 C19.495 103.515 19.495 103.515 20 102 C19.21625 102.33 18.4325 102.66 17.625 103 C15 104 15 104 13 104 C13 103.34 13 102.68 13 102 C10.525 102.495 10.525 102.495 8 103 C7.92572162 106.34252724 7.93453047 108.8035914 9 112 C9 112.33 9 112.66 9 113 C10.32 111.68 11.64 110.36 13 109 C13.33 109.99 13.66 110.98 14 112 C14.66 112.66 15.32 113.32 16 114 C15.66083005 117.18819752 15.01406317 119.95781049 14 123 C14.66 123 15.32 123 16 123 C15.34 124.98 14.68 126.96 14 129 C9.25 130 9.25 130 7 130 C3.84889597 131.59959844 3.84889597 131.59959844 3.56762695 133.97119141 C3.54144287 134.75671387 3.51525879 135.54223633 3.48828125 136.3515625 C3.45283203 137.20234375 3.41738281 138.053125 3.38085938 138.9296875 C3.35830078 139.81914062 3.33574219 140.70859375 3.3125 141.625 C3.27833984 142.5221875 3.24417969 143.419375 3.20898438 144.34375 C3.12637598 146.56237538 3.05727281 148.7805994 3 151 C2.67 151 2.34 151 2 151 C0.93063697 124.60812046 3.38796315 99.22310159 17 76 C17.99 75.01 17.99 75.01 19 74 C18.85404273 69.76723922 15.86858571 67.80483936 13 65 C8.26697943 60.11430135 5.8852415 54.69099565 3.625 48.375 C3.36211182 47.64635742 3.09922363 46.91771484 2.82836914 46.16699219 C1.40796356 41.97782153 0.70307003 38.48222863 1 34 C4.62939015 35.20979672 4.99407937 36.18923355 6.9375 39.375 C8.95867439 42.6843362 10.76564923 44.83445197 14 47 C12.98957024 43.87685346 11.93494855 41.92591363 9.75 39.4375 C3.97150429 32.8507028 -0.15406721 24.03448501 -0.09765625 15.234375 C-0.09443359 14.34492187 -0.09121094 13.45546875 -0.08789062 12.5390625 C-0.07532227 11.15847656 -0.07532227 11.15847656 -0.0625 9.75 C-0.05798828 8.81414062 -0.05347656 7.87828125 -0.04882812 6.9140625 C-0.03706918 4.60930959 -0.02063426 2.30468773 0 0 Z M220 106 C220.99 106.495 220.99 106.495 222 107 C221.01 107.495 221.01 107.495 220 108 C220 107.34 220 106.68 220 106 Z " fill="#045761" transform="translate(213,60)"/>
<path d="M0 0 C3.62939015 1.20979672 3.99407937 2.18923355 5.9375 5.375 C7.9843906 8.72644221 9.85893667 10.67981931 13 13 C13 13.66 13 14.32 13 15 C13.99 15 14.98 15 16 15 C16 15.99 16 16.98 16 18 C16.65355469 18.23847656 17.30710938 18.47695312 17.98046875 18.72265625 C22.65656919 20.70077377 27.04817504 23.19707891 31.49804688 25.63476562 C36.23506864 28.18808408 40.94049176 30.16961635 46 32 C47.67739862 32.98189187 49.34467377 33.98133771 51 35 C52.0725 35.433125 53.145 35.86625 54.25 36.3125 C62.33846112 39.74186895 68.79545192 45.41594134 75.35375977 51.12060547 C84.92390526 59.44346616 94.85072434 67.34037572 104.8125 75.1875 C105.39322266 75.64519775 105.97394531 76.10289551 106.57226562 76.57446289 C112.30260972 81.15145837 112.30260972 81.15145837 119.3125 82.375 C120.23675781 82.40335937 121.16101563 82.43171875 122.11328125 82.4609375 C128.39423262 81.4580251 133.40919425 76.17432137 138.25 72.25 C138.91185303 71.71705322 139.57370605 71.18410645 140.25561523 70.63500977 C141.57533172 69.57226618 142.89428291 68.50857142 144.21240234 67.44384766 C146.49148081 65.60302956 148.77594422 63.76901981 151.0625 61.9375 C152.21492188 61.01324219 152.21492188 61.01324219 153.390625 60.0703125 C155.43413981 58.44896093 157.48627419 56.84160622 159.546875 55.2421875 C160.16941162 54.75758057 160.79194824 54.27297363 161.43334961 53.77368164 C162.65060025 52.82717715 163.87003301 51.88346959 165.09204102 50.94311523 C167.69769018 48.91525825 170.032152 46.96554751 172.29296875 44.54296875 C179.76062521 37.52789753 189.65495558 33.67829785 198.875 29.5 C201.2690405 28.40802703 203.66227754 27.31429073 206.0546875 26.21875 C207.20936523 25.69023438 208.36404297 25.16171875 209.55371094 24.6171875 C213.98048242 22.53990397 218.33338059 20.33063196 222.67626953 18.08398438 C225 17 225 17 227 17 C227.24621094 16.28199219 227.49242187 15.56398438 227.74609375 14.82421875 C229.14116316 11.68205308 230.86471807 9.44904058 233.0625 6.8125 C235.80920164 3.58717013 235.80920164 3.58717013 238 0 C238.99 0.33 239.98 0.66 241 1 C238.23746478 13.66723467 235.04276778 23.90053444 225.5703125 32.9921875 C223.94727552 34.5391513 223.94727552 34.5391513 222 37 C222.09527437 39.96938462 222.99795565 40.99715252 224.75 43.4375 C228.22061528 48.40994516 229.98746377 54.32830698 232 60 C232.24588867 60.6909375 232.49177734 61.381875 232.74511719 62.09375 C241.52704065 87.47605589 244.06927941 119.1454898 232.03369141 143.99511719 C225.45311155 155.9760141 214.27465233 171.35851317 201 176 C201.226875 174.906875 201.45375 173.81375 201.6875 172.6875 C202.40146383 169.09468727 202.40146383 169.09468727 200.5625 167.0625 C200.046875 166.711875 199.53125 166.36125 199 166 C199.66 165.67 200.32 165.34 201 165 C201.1546875 163.7934375 201.1546875 163.7934375 201.3125 162.5625 C201.6528125 161.2940625 201.6528125 161.2940625 202 160 C204.4375 158.75 204.4375 158.75 207 158 C209.82059747 156.58970126 209.98101714 154.92108419 211 152 C211.35858516 150.67323492 211.7018576 149.34164079 212 148 C212.66 148 213.32 148 214 148 C214 147.01 214 146.02 214 145 C215.32 144.67 216.64 144.34 218 144 C217.67 146.64 217.34 149.28 217 152 C218.98 152 220.96 152 223 152 C223.27635161 147.97869285 223.27635161 147.97869285 223 144 C221.15811388 141.94729537 221.15811388 141.94729537 219 141 C219.45822468 137.53058454 219.89131683 134.32604951 221 131 C221.66 131 222.32 131 223 131 C223.66 129.35 224.32 127.7 225 126 C225.66 126 226.32 126 227 126 C227.33 126.99 227.66 127.98 228 129 C230.58777208 125.94419026 230.58777208 125.94419026 231 122 C231.66 122 232.32 122 233 122 C233 121.01 233 120.02 233 119 C233.66 119 234.32 119 235 119 C234.67 118.01 234.34 117.02 234 116 C234.66 116 235.32 116 236 116 C236 114.02 236 112.04 236 110 C233.78918149 109.89459074 233.78918149 109.89459074 231 111 C230.67 111.99 230.34 112.98 230 114 C229.01 113.67 228.02 113.34 227 113 C226.84430177 103.81380417 226.84430177 103.81380417 228 100 C228.66 99.67 229.32 99.34 230 99 C230.72693904 97.02111039 231.39816251 95.02045442 232 93 C231.34 92.34 230.68 91.68 230 91 C230 92.32 230 93.64 230 95 C229.01 94.67 228.02 94.34 227 94 C227.4794463 89.78087253 228.16625119 87.20336822 231 84 C230.67 83.34 230.34 82.68 230 82 C229.34 82 228.68 82 228 82 C228 82.99 228 83.98 228 85 C227.01 84.67 226.02 84.34 225 84 C224.09162237 81.52260646 224 79.66420516 224 77 C222.91666667 74.25 222.91666667 74.25 221 72 C218.42422657 71.80709475 218.42422657 71.80709475 216 72 C215.68546875 71.13117188 215.3709375 70.26234375 215.046875 69.3671875 C210.57084665 57.31426778 204.8434879 48.49730329 193.6875 41.5625 C188.2801726 40.4307338 183.47044038 42.17994671 178.75 44.8125 C175.94917307 47.04043051 173.45618671 49.39933172 171 52 C171.72445312 52.37511719 172.44890625 52.75023437 173.1953125 53.13671875 C188.03316253 60.99088737 188.03316253 60.99088737 191.3046875 69.2109375 C193.3119889 77.26269703 193.38801676 86.63798287 189.3828125 94.07421875 C184.5272525 100.83634045 178.02486803 104.93890168 170 107 C161.93241854 108.21893365 154.62365812 106.31032332 147.9921875 101.5625 C143.01794218 97.08352586 139.9642687 91.36350644 138 85 C137.87109375 81.66015625 137.87109375 81.66015625 138 79 C136.8553125 79.99 136.8553125 79.99 135.6875 81 C133 83 133 83 130 83 C130 83.66 130 84.32 130 85 C125.21773466 87.54375816 121.74245818 88.53225397 116.34375 87.71875 C112.00150265 86.38712748 108.58383882 83.71306674 105 81 C103.515 80.01 103.515 80.01 102 79 C102.12375 79.928125 102.2475 80.85625 102.375 81.8125 C102.375 88.65730967 97.69187286 95.37545266 93.375 100.4375 C88.35837765 104.99206502 80.60227246 107.08774603 73.9375 107.5 C65.72915424 106.45767038 58.96516878 104.05498522 53.3671875 97.80078125 C47.35797801 89.8857939 47.39793315 81.58928298 48 72 C49.12683454 66.78284482 52.05167688 63.48921578 56 60 C56.94875 59.13375 57.8975 58.2675 58.875 57.375 C62.2246781 54.82924465 65.09427196 53.48417666 69 52 C63.6991656 46.83414055 59.28229064 42.79072721 52 41 C46.94344775 41.10113104 44.00125699 43.02034054 40 46 C39.19949219 46.59039062 38.39898437 47.18078125 37.57421875 47.7890625 C29.94179064 54.34438012 25.83837388 63.2719382 24 73 C22.824375 73.185625 22.824375 73.185625 21.625 73.375 C18.85942178 73.79117993 18.85942178 73.79117993 17 76 C16.01 76 15.02 76 14 76 C14.3125 74.0625 14.3125 74.0625 15 72 C16.485 71.505 16.485 71.505 18 71 C18.495 69.515 18.495 69.515 19 68 C18.21625 68.33 17.4325 68.66 16.625 69 C14 70 14 70 12 70 C12 69.34 12 68.68 12 68 C9.525 68.495 9.525 68.495 7 69 C6.92572162 72.34252724 6.93453047 74.8035914 8 78 C8 78.33 8 78.66 8 79 C9.32 77.68 10.64 76.36 12 75 C12.33 75.99 12.66 76.98 13 78 C13.66 78.66 14.32 79.32 15 80 C14.66083005 83.18819752 14.01406317 85.95781049 13 89 C13.66 89 14.32 89 15 89 C14.34 90.98 13.68 92.96 13 95 C8.25 96 8.25 96 6 96 C2.84889597 97.59959844 2.84889597 97.59959844 2.56762695 99.97119141 C2.54144287 100.75671387 2.51525879 101.54223633 2.48828125 102.3515625 C2.45283203 103.20234375 2.41738281 104.053125 2.38085938 104.9296875 C2.35830078 105.81914062 2.33574219 106.70859375 2.3125 107.625 C2.27833984 108.5221875 2.24417969 109.419375 2.20898438 110.34375 C2.12637598 112.56237538 2.05727281 114.7805994 2 117 C1.67 117 1.34 117 1 117 C-0.06936303 90.60812046 2.38796315 65.22310159 16 42 C16.66 41.34 17.32 40.68 18 40 C17.85404273 35.76723922 14.86858571 33.80483936 12 31 C7.26697943 26.11430135 4.8852415 20.69099565 2.625 14.375 C2.36211182 13.64635742 2.09922363 12.91771484 1.82836914 12.16699219 C0.40796356 7.97782153 -0.29692997 4.48222863 0 0 Z M219 72 C219.99 72.495 219.99 72.495 221 73 C220.01 73.495 220.01 73.495 219 74 C219 73.34 219 72.68 219 72 Z " fill="#0E3143" transform="translate(214,94)"/>
<path d="M0 0 C5.83610121 2.98613845 10.12823998 6.75438965 14 12 C13.41992188 12.23074219 12.83984375 12.46148437 12.2421875 12.69921875 C7.01750023 14.88048258 3.23941919 17.27758315 -1 21 C-1.66 21 -2.32 21 -3 21 C-7.50362045 29.36386656 -8.23523628 38.08267685 -6.5703125 47.40625 C-4.52665859 53.76428437 -0.28751244 59.25580562 5.62109375 62.390625 C14.8489451 66.02545133 21.9206435 65.69960561 31.16015625 62.390625 C38.06461562 59.00962426 42.43085523 52.10043856 45 45 C45.52966884 42.63444511 45.79795798 40.42450422 46 38 C48.76317285 39.31143965 51.18847401 40.80741885 53.6875 42.5625 C58.58678288 45.64048813 63.39966407 46.67506299 69.125 45.6015625 C70.77285475 45.14308678 72.39153731 44.58178438 74 44 C74 43.34 74 42.68 74 42 C76.63892176 40.21694476 78.97178863 39.00940379 82 38 C82.226875 39.299375 82.45375 40.59875 82.6875 41.9375 C84.34604462 49.35423121 87.93727565 56.28454773 94 61 C101.62272144 65.13804878 108.64552473 66.48773513 117.05078125 64.15234375 C123.96345265 61.61281939 129.1378796 58.39446881 133 52 C136.65679636 43.18428892 136.11228279 32.57749147 133.046875 23.63671875 C131.67369211 21.48983953 130.31510285 21.02198234 128 20 C125.74526814 18.51566847 123.53233534 16.97901589 121.31640625 15.4375 C118.94681156 13.96699267 116.61352118 12.95875204 114 12 C119.19130888 5.44643277 124.2269532 0.65533765 132.703125 -0.9375 C138.80029208 -1.10340931 144.03413549 3.32039197 148.34375 7.2578125 C158.35823931 17.79192154 161.73327734 30.10035964 161.52124023 44.25415039 C160.95395306 58.56038334 156.06288563 69.22475521 145.9375 79.3125 C136.57651643 87.08180118 125.31400889 89.1540501 113.47265625 88.5390625 C100.28527288 87.29395064 90.43994095 80.5153011 81.94140625 70.59765625 C74.46429674 61.25515559 74.46429674 61.25515559 73.5625 56.875 C72.75138917 54.17129722 71.36753829 53.47259255 69 52 C65.59536271 51.33568053 62.4161299 51.41770513 59 52 C55.02973074 54.78763586 53.59316325 57.667131 51.859375 62.1171875 C46.63062365 73.57290637 36.40435712 81.34536201 24.99780273 85.77807617 C14.49281894 89.59008343 2.70820097 90.1535681 -7.63500977 85.53930664 C-19.22371982 79.67120402 -26.20246799 72.22301149 -31 60 C-34.54995717 48.33239333 -35.33446196 32.19390272 -30 21 C-23.94120734 10.40024886 -13.89620402 -4.18354029 0 0 Z " fill="#F8FBFB" transform="translate(270,135)"/>
<path d="M0 0 C0.33 0.66 0.66 1.32 1 2 C1.66 2 2.32 2 3 2 C3.25652344 2.54527344 3.51304687 3.09054688 3.77734375 3.65234375 C8.79670361 13.53896165 15.99249244 20.29197635 26 25 C26 25.66 26 26.32 26 27 C26.50789063 27.08894531 27.01578125 27.17789063 27.5390625 27.26953125 C31.0328207 28.30656741 34.1516101 30.01788025 37.375 31.6875 C46.96436426 36.56411901 56.58180388 41.18853219 67 44 C67 44.66 67 45.32 67 46 C67.680625 46.11214844 68.36125 46.22429687 69.0625 46.33984375 C81.11015946 48.79102978 93.35792108 55.14186911 102 64 C102 64.66 102 65.32 102 66 C102.598125 66.061875 103.19625 66.12375 103.8125 66.1875 C106.92266847 67.34270543 107.60417708 69.06877187 109 72 C109 72.99 109 73.98 109 75 C110.485 75.495 110.485 75.495 112 76 C112.9831543 77.85424805 112.9831543 77.85424805 113.82421875 80.26171875 C114.13037109 81.13376953 114.43652344 82.00582031 114.75195312 82.90429688 C115.21504883 84.28198242 115.21504883 84.28198242 115.6875 85.6875 C116.00783203 86.58662109 116.32816406 87.48574219 116.65820312 88.41210938 C118.26053817 93.06878883 119.43905383 97.00472717 119 102 C119.66 102 120.32 102 121 102 C120.9175 100.88625 120.835 99.7725 120.75 98.625 C120.73094316 93.28908461 122.60151671 88.70943069 125 84 C125.66 83.34 126.32 82.68 127 82 C125.31410567 91.0751333 125.31410567 91.0751333 123.875 95.3125 C122.98563983 98.04410622 122.83229813 100.14906823 123 103 C130.1120364 101.08522097 134.74070244 97.15497767 140.16796875 92.375 C143 90 143 90 145.51953125 88.50390625 C148.57525734 86.65122193 150.91601883 84.40435015 153.5 81.9375 C165.09708241 71.08633322 177.40349761 62.35758771 192 56 C194.31576406 54.98521608 196.63093187 53.96910708 198.9453125 52.95117188 C200.49630471 52.26899818 202.04841218 51.58935516 203.6015625 50.91210938 C208.56915003 48.72077597 213.10152398 46.26565068 217.625 43.25 C218.40875 42.8375 219.1925 42.425 220 42 C220.99 42.33 221.98 42.66 223 43 C223 44.32 223 45.64 223 47 C212.97767501 52.14039018 202.85121473 56.9594352 192.54052734 61.49755859 C187.68384535 63.66241648 183.33658386 65.92688215 179 69 C177.28525435 69.96260369 175.55613918 70.87633112 173.80859375 71.77734375 C171.21146712 73.53306866 169.20065793 75.77059618 167 78 C164.87061514 79.93973706 162.68990775 81.81657041 160.5 83.6875 C159.89124023 84.20860352 159.28248047 84.72970703 158.65527344 85.26660156 C153.57965828 89.5762841 148.35515953 93.65861273 143.046875 97.67578125 C139.37402986 100.47750286 135.79021375 103.37925961 132.21875 106.30859375 C127.15932819 110.16551214 123.47947707 111.92399192 117.07421875 111.71875 C111.29553328 110.36769774 107.17365059 106.3582114 102.79931641 102.54882812 C100.26654703 100.36865324 97.65448616 98.29266021 95.04589844 96.2043457 C89.3091432 91.6005654 83.66266808 86.8934846 78.0625 82.125 C64.59005808 70.51570946 64.59005808 70.51570946 48.80078125 62.6796875 C46.34823183 61.7539964 44.24476046 60.34685627 42 59 C40.824375 58.58105469 39.64875 58.16210938 38.4375 57.73046875 C33.50715682 55.91691895 29.05291327 53.41151645 24.5 50.8125 C23.26636719 50.11737305 23.26636719 50.11737305 22.0078125 49.40820312 C20.00228186 48.27717712 17.99982878 47.14106748 16 46 C16 45.01 16 44.02 16 43 C14.515 42.505 14.515 42.505 13 42 C12.95875 41.319375 12.9175 40.63875 12.875 39.9375 C11.98790738 36.95940334 11.36155031 36.12030033 9.3125 33.9375 C3.6719044 27.75191932 -1.17729541 19.05577876 -0.87890625 10.546875 C-0.77449219 9.29390625 -0.67007813 8.0409375 -0.5625 6.75 C-0.46066406 5.48671875 -0.35882813 4.2234375 -0.25390625 2.921875 C-0.17011719 1.95765625 -0.08632812 0.9934375 0 0 Z " fill="#058F8C" transform="translate(214,66)"/>
<path d="M0 0 C0.33 0 0.66 0 1 0 C2.87443516 11.24661099 1.87708096 19.41633524 -4.45703125 29.265625 C-5.91942289 31.22577 -7.44453566 33.11317108 -9 35 C-10.1315879 36.4950364 -11.25674717 37.99496325 -12.375 39.5 C-13.25 40.66666667 -14.125 41.83333333 -15 43 C-13.35 42.34 -11.7 41.68 -10 41 C-10.75 42.9375 -10.75 42.9375 -12 45 C-14.125 45.75 -14.125 45.75 -16 46 C-16.33 45.01 -16.66 44.02 -17 43 C-21.05486695 44.0351374 -21.05486695 44.0351374 -24.3515625 46.42578125 C-26.53659791 48.51243828 -28.75194362 49.28302373 -31.5625 50.375 C-36.37399165 52.30307066 -40.96184134 54.44804066 -45.56640625 56.8203125 C-48.02601988 58.01261317 -50.50232784 58.98285953 -53.0625 59.9375 C-67.20279076 65.50592458 -79.50897131 77.31507942 -90.37890625 87.6875 C-92.82653649 89.84695917 -95.19346554 91.36137466 -98 93 C-100.50887495 95.00789516 -102.95525302 97.07760835 -105.40234375 99.16015625 C-108.66464302 101.47074716 -111.94622031 103 -116 103 C-117.24838392 97.32552766 -116.6221791 95.05012272 -114 90 C-113.64258769 88.23768238 -113.33444226 86.46501353 -113.0625 84.6875 C-111.23012405 73.64818585 -106.69440565 67.86400446 -98 61 C-97.56171875 60.53851563 -97.1234375 60.07703125 -96.671875 59.6015625 C-91.25351342 54.41107594 -84.38958653 50.76124872 -77.234375 48.66796875 C-72.00878246 47.10577238 -66.9866009 44.85323609 -61.98046875 42.703125 C-56.35377398 40.29673981 -50.9914985 38.26743237 -45 37 C-45 36.34 -45 35.68 -45 35 C-44.41734375 34.78085938 -43.8346875 34.56171875 -43.234375 34.3359375 C-31.44091691 30.20738514 -31.44091691 30.20738514 -21.33984375 23.31640625 C-20 22 -20 22 -17 22 C-17 21.34 -17 20.68 -17 20 C-15.35546875 18.37890625 -15.35546875 18.37890625 -13.1875 16.5625 C-8.06398997 12.527713 -8.06398997 12.527713 -5 7 C-4.34 7 -3.68 7 -3 7 C-2.5359375 5.5459375 -2.5359375 5.5459375 -2.0625 4.0625 C-1 1 -1 1 0 0 Z " fill="#048F8C" transform="translate(453,66)"/>
<path d="M0 0 C0.66 0 1.32 0 2 0 C4.54379696 4.89993677 6.97306543 9.77360658 8.9375 14.9375 C10.80938294 19.79823306 13.23841486 24.23723777 15.828125 28.75 C17 31 17 31 17 33 C17.66 33 18.32 33 19 33 C19.268125 32.29746094 19.53625 31.59492188 19.8125 30.87109375 C21.49487935 26.80349894 23.54469368 22.94465599 25.5625 19.03515625 C26.96909682 16.06524937 27.97076586 13.11652098 29 10 C29.84040805 8.19184935 30.71417058 6.39872044 31.625 4.625 C32.29402344 3.31402344 32.29402344 3.31402344 32.9765625 1.9765625 C33.31429687 1.32429687 33.65203125 0.67203125 34 0 C37.12961734 1.35280233 38.85505395 2.75512489 40.9375 5.4375 C43.36675162 8.39298749 45.583931 10.20206894 49 12 C49.56460938 12.46664062 50.12921875 12.93328125 50.7109375 13.4140625 C53.65303482 15.45244392 56.6204213 16.45789973 60 17.625 C61.216875 18.05039063 62.43375 18.47578125 63.6875 18.9140625 C66.12376305 19.71274308 68.50243264 20.43804734 71 21 C69.62947802 25.11156593 67.72779524 25.51564336 63.9375 27.5 C62.83277344 28.0878125 61.72804688 28.675625 60.58984375 29.28125 C58.0868425 30.47964015 55.77951559 31.46920922 53.1875 32.3828125 C48.19684287 34.19585046 43.67832974 36.77354226 39.0625 39.375 C38.22009766 39.84421875 37.37769531 40.3134375 36.50976562 40.796875 C35.67251953 41.26351562 34.83527344 41.73015625 33.97265625 42.2109375 C32.73153076 42.89881348 32.73153076 42.89881348 31.46533203 43.60058594 C29.81776998 44.53580337 28.1880334 45.50312141 26.57763672 46.50097656 C25.80822754 46.96729492 25.03881836 47.43361328 24.24609375 47.9140625 C23.57118896 48.33896973 22.89628418 48.76387695 22.20092773 49.20166016 C18.11172142 50.684933 14.84432271 49.38170753 11.01147461 47.64892578 C9.98546143 47.0867334 8.95944824 46.52454102 7.90234375 45.9453125 C6.77119141 45.33042969 5.64003906 44.71554688 4.47460938 44.08203125 C3.29551419 43.42979365 2.11647823 42.77744898 0.9375 42.125 C-0.24502038 41.47969424 -1.42795992 40.83515594 -2.61132812 40.19140625 C-11.00045463 35.606818 -11.00045463 35.606818 -14.67749023 33.37451172 C-17.00950257 31.99437617 -19.39309082 30.9919224 -21.890625 29.953125 C-34.33492823 24.33014354 -34.33492823 24.33014354 -36 21 C-35.17757813 20.76925781 -34.35515625 20.53851563 -33.5078125 20.30078125 C-20.25699581 16.42958423 -8.5389605 11.27142785 0 0 Z " fill="#F5F9F9" transform="translate(316,208)"/>
<path d="M0 0 C3.18121528 0.58840638 6.38639923 0.97014565 9.59521484 1.37597656 C15.28368744 2.16474245 20.60871881 3.50132356 26.03271484 5.37597656 C26.03271484 5.70597656 26.03271484 6.03597656 26.03271484 6.37597656 C24.38271484 6.37597656 22.73271484 6.37597656 21.03271484 6.37597656 C21.03271484 7.03597656 21.03271484 7.69597656 21.03271484 8.37597656 C19.11458984 8.71628906 19.11458984 8.71628906 17.15771484 9.06347656 C12.47104436 10.08776461 8.62663312 11.96548704 4.40771484 14.20019531 C1.33282228 15.72246943 -1.63816382 16.57988233 -4.96728516 17.37597656 C-4.96728516 18.03597656 -4.96728516 18.69597656 -4.96728516 19.37597656 C-5.72654297 19.77429688 -6.48580078 20.17261719 -7.26806641 20.58300781 C-8.26193359 21.1128125 -9.25580078 21.64261719 -10.27978516 22.18847656 C-11.26591797 22.71054688 -12.25205078 23.23261719 -13.26806641 23.77050781 C-15.60193876 25.15867212 -17.10085212 26.46360056 -18.96728516 28.37597656 C-19.62728516 28.37597656 -20.28728516 28.37597656 -20.96728516 28.37597656 C-20.96728516 29.36597656 -20.96728516 30.35597656 -20.96728516 31.37597656 C-21.62728516 31.37597656 -22.28728516 31.37597656 -22.96728516 31.37597656 C-23.23541016 32.11847656 -23.50353516 32.86097656 -23.77978516 33.62597656 C-24.91990339 36.26625036 -26.21871443 38.11740604 -27.96728516 40.37597656 C-28.66308782 41.69433951 -29.33952948 43.02388742 -29.96728516 44.37597656 C-33.3732627 43.24065071 -33.50181088 42.89480834 -35.02978516 39.87597656 C-36.39174044 37.04578588 -36.39174044 37.04578588 -38.96728516 35.37597656 C-40.03759766 33.81738281 -40.03759766 33.81738281 -41.09228516 31.93847656 C-41.44548828 31.32101563 -41.79869141 30.70355469 -42.16259766 30.06738281 C-42.96728516 28.37597656 -42.96728516 28.37597656 -42.96728516 26.37597656 C-43.62728516 26.37597656 -44.28728516 26.37597656 -44.96728516 26.37597656 C-44.96728516 25.71597656 -44.96728516 25.05597656 -44.96728516 24.37597656 C-46.03978516 24.12847656 -47.11228516 23.88097656 -48.21728516 23.62597656 C-51.96728516 22.37597656 -51.96728516 22.37597656 -53.79541016 20.49316406 C-56.45582177 17.89974123 -59.07191721 16.73839692 -62.46728516 15.25097656 C-63.59134766 14.75339844 -64.71541016 14.25582031 -65.87353516 13.74316406 C-66.89447266 13.29199219 -67.91541016 12.84082031 -68.96728516 12.37597656 C-69.65306641 12.00988281 -70.33884766 11.64378906 -71.04541016 11.26660156 C-73.40462475 10.17330699 -75.66331572 9.72144462 -78.21728516 9.25097656 C-79.10931641 9.08339844 -80.00134766 8.91582031 -80.92041016 8.74316406 C-81.59587891 8.62199219 -82.27134766 8.50082031 -82.96728516 8.37597656 C-82.96728516 7.71597656 -82.96728516 7.05597656 -82.96728516 6.37597656 C-83.62728516 6.04597656 -84.28728516 5.71597656 -84.96728516 5.37597656 C-77.77063396 2.06030495 -70.56473527 0.85384999 -62.77978516 -0.31152344 C-62.05474792 -0.42141602 -61.32971069 -0.53130859 -60.58270264 -0.64453125 C-40.25536639 -3.66597412 -20.21717067 -3.96930294 0 0 Z " fill="#03908D" transform="translate(364.96728515625,91.6240234375)"/>
<path d="M0 0 C0.66 0.33 1.32 0.66 2 1 C10.23274614 26.74019125 13.2168144 58.8408774 1.03369141 83.99511719 C-5.54688845 95.9760141 -16.72534767 111.35851317 -30 116 C-29.6596875 114.3603125 -29.6596875 114.3603125 -29.3125 112.6875 C-28.59853617 109.09468727 -28.59853617 109.09468727 -30.4375 107.0625 C-30.953125 106.711875 -31.46875 106.36125 -32 106 C-31.01 105.505 -31.01 105.505 -30 105 C-29.896875 104.195625 -29.79375 103.39125 -29.6875 102.5625 C-29.460625 101.716875 -29.23375 100.87125 -29 100 C-26.5625 98.75 -26.5625 98.75 -24 98 C-21.17940253 96.58970126 -21.01898286 94.92108419 -20 92 C-19.64141484 90.67323492 -19.2981424 89.34164079 -19 88 C-18.34 88 -17.68 88 -17 88 C-17 87.01 -17 86.02 -17 85 C-15.02 84.505 -15.02 84.505 -13 84 C-13.33 86.64 -13.66 89.28 -14 92 C-12.02 92 -10.04 92 -8 92 C-7.72364839 87.97869285 -7.72364839 87.97869285 -8 84 C-9.84188612 81.94729537 -9.84188612 81.94729537 -12 81 C-11.54177532 77.53058454 -11.10868317 74.32604951 -10 71 C-9.34 71 -8.68 71 -8 71 C-7.34 69.35 -6.68 67.7 -6 66 C-5.34 66 -4.68 66 -4 66 C-3.67 66.99 -3.34 67.98 -3 69 C-0.41222792 65.94419026 -0.41222792 65.94419026 0 62 C0.66 62 1.32 62 2 62 C2 61.01 2 60.02 2 59 C2.66 59 3.32 59 4 59 C3.67 58.01 3.34 57.02 3 56 C3.66 56 4.32 56 5 56 C5 54.02 5 52.04 5 50 C2.78918149 49.89459074 2.78918149 49.89459074 0 51 C-0.33 51.99 -0.66 52.98 -1 54 C-2.485 53.505 -2.485 53.505 -4 53 C-4.15569823 43.81380417 -4.15569823 43.81380417 -3 40 C-2.01 39.505 -2.01 39.505 -1 39 C-0.27306096 37.02111039 0.39816251 35.02045442 1 33 C0.34 32.34 -0.32 31.68 -1 31 C-1 32.32 -1 33.64 -1 35 C-2.485 34.505 -2.485 34.505 -4 34 C-3.5205537 29.78087253 -2.83374881 27.20336822 0 24 C-0.33 23.34 -0.66 22.68 -1 22 C-1.66 22 -2.32 22 -3 22 C-3 22.99 -3 23.98 -3 25 C-3.99 24.67 -4.98 24.34 -6 24 C-6.90837763 21.52260646 -7 19.66420516 -7 17 C-8.08333333 14.25 -8.08333333 14.25 -10 12 C-12.62694422 11.58219121 -12.62694422 11.58219121 -15 12 C-15.33 10.02 -15.66 8.04 -16 6 C-15.195625 5.71125 -14.39125 5.4225 -13.5625 5.125 C-10.8673532 4.26737432 -10.8673532 4.26737432 -10 2 C-9.1028125 2.4640625 -9.1028125 2.4640625 -8.1875 2.9375 C-5.91043228 4.10209704 -5.91043228 4.10209704 -3 5 C-2.67 4.34 -2.34 3.68 -2 3 C-1.01 3.66 -0.02 4.32 1 5 C0.505 2.525 0.505 2.525 0 0 Z M-12 12 C-11.01 12.495 -11.01 12.495 -10 13 C-10.99 13.495 -10.99 13.495 -12 14 C-12 13.34 -12 12.68 -12 12 Z " fill="#18394B" transform="translate(445,154)"/>
<path d="M0 0 C3.8992823 0.57767145 6.04335873 2.48685492 9 5 C11.75734362 7.29778635 14.46501071 8.70728195 17.78125 10.0703125 C25.80735333 13.43336284 33.6399999 17.26641533 41.4375 21.125 C42.09935303 21.44944092 42.76120605 21.77388184 43.44311523 22.1081543 C54.22781007 27.49025919 63.28261233 35.31079208 72.39477539 43.09204102 C77.63576328 47.56672258 83.02937004 51.81135061 88.5 56 C91.61820699 58.38749027 94.72770478 60.77971622 97.78125 63.25 C101.63606619 66.2904184 104.07852542 66.47627173 109 66 C115.52993096 63.24759899 120.86061577 57.88167081 126.16796875 53.3046875 C129 51 129 51 131.51953125 49.51171875 C134.57057471 47.65226392 136.91631788 45.40406466 139.5 42.9375 C151.09708241 32.08633322 163.40349761 23.35758771 178 17 C180.31576406 15.98521608 182.63093187 14.96910708 184.9453125 13.95117188 C186.49630471 13.26899818 188.04841218 12.58935516 189.6015625 11.91210938 C194.56915003 9.72077597 199.10152398 7.26565068 203.625 4.25 C204.40875 3.8375 205.1925 3.425 206 3 C206.99 3.33 207.98 3.66 209 4 C209 5.32 209 6.64 209 8 C198.97767501 13.14039018 188.85121473 17.9594352 178.54052734 22.49755859 C173.68384535 24.66241648 169.33658386 26.92688215 165 30 C163.28525435 30.96260369 161.55613918 31.87633112 159.80859375 32.77734375 C157.21146712 34.53306866 155.20065793 36.77059618 153 39 C150.87061514 40.93973706 148.68990775 42.81657041 146.5 44.6875 C145.89124023 45.20860352 145.28248047 45.72970703 144.65527344 46.26660156 C139.57965828 50.5762841 134.35515953 54.65861273 129.046875 58.67578125 C125.37402986 61.47750286 121.79021375 64.37925961 118.21875 67.30859375 C113.15932819 71.16551214 109.47947707 72.92399192 103.07421875 72.71875 C97.29553328 71.36769774 93.17365059 67.3582114 88.79931641 63.54882812 C86.26654703 61.36865324 83.65448616 59.29266021 81.04589844 57.2043457 C75.3091432 52.6005654 69.66266808 47.8934846 64.0625 43.125 C50.59005808 31.51570946 50.59005808 31.51570946 34.80078125 23.6796875 C32.34823183 22.7539964 30.24476046 21.34685627 28 20 C26.824375 19.58105469 25.64875 19.16210938 24.4375 18.73046875 C19.50715682 16.91691895 15.05291327 14.41151645 10.5 11.8125 C9.67757812 11.34908203 8.85515625 10.88566406 8.0078125 10.40820312 C6.00228186 9.27717712 3.99982878 8.14106748 2 7 C2 6.01 2 5.02 2 4 C1.01 3.67 0.02 3.34 -1 3 C-0.67 2.01 -0.34 1.02 0 0 Z " fill="#DBEEF0" transform="translate(228,105)"/>
<path d="M0 0 C4.71204504 7.06806756 2.69367314 19.82549994 1.34765625 27.92578125 C-1.73776861 38.9829905 -8.43912461 48.56424657 -18 55 C-29.06162857 60.81372039 -42.0829154 62.42325892 -54.1640625 58.92578125 C-62.08287217 56.21758735 -68.2906211 52.09619319 -74 46 C-70.7765055 46 -69.22745827 46.65162359 -66.3125 47.9375 C-61.84812321 49.75015227 -57.8178631 50.80759333 -53 51 C-51.20175781 51.09474609 -51.20175781 51.09474609 -49.3671875 51.19140625 C-36.80363108 51.65537539 -26.69677153 49.44826017 -17 41 C-16.33742188 40.45601562 -15.67484375 39.91203125 -14.9921875 39.3515625 C-11.49666438 36.58846915 -11.49666438 36.58846915 -9 33 C-8.34 33 -7.68 33 -7 33 C-7 32.34 -7 31.68 -7 31 C-6.34 31 -5.68 31 -5 31 C-4.80664062 30.34773438 -4.61328125 29.69546875 -4.4140625 29.0234375 C-4.15367187 28.14945313 -3.89328125 27.27546875 -3.625 26.375 C-3.24214844 25.08722656 -3.24214844 25.08722656 -2.8515625 23.7734375 C-2.26995671 21.8792168 -1.6175666 20.00567316 -0.90625 18.15625 C0.16512791 14.42489936 0.22176849 10.96596473 0.125 7.125 C0.11597656 6.43664062 0.10695313 5.74828125 0.09765625 5.0390625 C0.07432513 3.35922162 0.03846326 1.67956254 0 0 Z " fill="#C6E2EA" transform="translate(429,163)"/>
<path d="M0 0 C0.90025148 2.70075443 0.98736509 4.73282492 0.9375 7.625 C0.8690879 16.84353006 3.16651279 25.6148648 9.4375 32.6015625 C10.61457784 33.74520063 11.80590621 34.87414014 13 36 C13 36.66 13 37.32 13 38 C13.99 38.33 14.98 38.66 16 39 C16 39.66 16 40.32 16 41 C17.32 41 18.64 41 20 41 C21.5625 42.4375 21.5625 42.4375 23 44 C24.485 44.495 24.485 44.495 26 45 C26 45.66 26 46.32 26 47 C26.70125 47.12375 27.4025 47.2475 28.125 47.375 C31 48 31 48 33.55078125 49.01171875 C38.10125075 50.31553391 42.3488923 50.42441485 47.0625 50.4375 C48.45553345 50.44221313 48.45553345 50.44221313 49.87670898 50.44702148 C57.8984481 50.30836726 63.75570189 48.45776357 71 45 C72.32273097 44.62680879 73.65355304 44.27562561 75 44 C68.41952488 52.83169029 58.60625836 57.59103978 47.75415039 59.36767578 C33.86729464 60.65572314 23.56824851 57.33134699 12.44140625 49.109375 C4.60265886 42.05598416 -0.44313387 31.02682752 -1.17089844 20.53662109 C-1.23120963 17.91703908 -1.2242373 15.30744956 -1.1875 12.6875 C-1.18685547 11.79482422 -1.18621094 10.90214844 -1.18554688 9.98242188 C-1.14112903 3.4233871 -1.14112903 3.4233871 0 0 Z " fill="#C5E2EC" transform="translate(238,164)"/>
<path d="M0 0 C4.10486744 2.05243372 4.58593444 2.53912748 6.6875 6.25 C9.93105062 11.37052916 13.80364378 14.02927121 19 17 C21.84712196 18.69471545 24.46773429 20.35241056 27.12109375 22.3515625 C30.99533676 25.13352349 35.04629972 26.99254234 39.4375 28.8125 C40.16904297 29.12380859 40.90058594 29.43511719 41.65429688 29.75585938 C43.43298603 30.51151163 45.21604531 31.25686401 47 32 C46.34 32.66 45.68 33.32 45 34 C42.17042171 33.63723355 39.70915709 32.90305236 37 32 C36.34 32.99 35.68 33.98 35 35 C33.68528432 34.71848913 32.37324233 34.42446661 31.0625 34.125 C30.33160156 33.96257812 29.60070312 33.80015625 28.84765625 33.6328125 C27 33 27 33 26 31 C24.88625 30.525625 23.7725 30.05125 22.625 29.5625 C14.61561393 25.72436744 7.4407141 18.11597013 4 10 C4 9.34 4 8.68 4 8 C3.34 8 2.68 8 2 8 C1.67 9.65 1.34 11.3 1 13 C0.67 13 0.34 13 0 13 C0 8.71 0 4.42 0 0 Z " fill="#0D5A63" transform="translate(213,60)"/>
<path d="M0 0 C0.66 0 1.32 0 2 0 C3.00496852 3.01490557 3.10335303 5.04181692 3.0625 8.1875 C3.05347656 9.08855469 3.04445313 9.98960938 3.03515625 10.91796875 C3.02355469 11.60503906 3.01195312 12.29210937 3 13 C2.34 13 1.68 13 1 13 C0.505 10.03 0.505 10.03 0 7 C-0.99 8.98 -1.98 10.96 -3 13 C-3.66 13 -4.32 13 -5 13 C-5.07347656 13.56203125 -5.14695312 14.1240625 -5.22265625 14.703125 C-6.28407023 17.83936329 -8.08317666 19.44464658 -10.4375 21.75 C-11.24058594 22.54921875 -12.04367187 23.3484375 -12.87109375 24.171875 C-15 26 -15 26 -17 26 C-17 26.66 -17 27.32 -17 28 C-18.63064764 29.05771739 -20.30280873 30.05273046 -22 31 C-22.99 31.66 -23.98 32.32 -25 33 C-28.6875 32.625 -28.6875 32.625 -32 32 C-31.34 30.68 -30.68 29.36 -30 28 C-30.66 27.34 -31.32 26.68 -32 26 C-31.0925 25.566875 -30.185 25.13375 -29.25 24.6875 C-26.5300088 23.27519687 -24.42089674 21.83401268 -22 20 C-20.24522694 19.01094609 -18.49040146 18.02198308 -16.734375 17.03515625 C-10.19714112 13.13342882 -5.68690043 7.74202445 -1.3671875 1.609375 C-0.91601562 1.07828125 -0.46484375 0.5471875 0 0 Z " fill="#125F69" transform="translate(453,60)"/>
<path d="M0 0 C0.33 0.66 0.66 1.32 1 2 C2.98 1.34 4.96 0.68 7 0 C6.37240135 2.92879371 5.41377341 5.36095629 4 8 C3.01 8 2.02 8 1 8 C1.33 8.99 1.66 9.98 2 11 C1.67 11.66 1.34 12.32 1 13 C3.64 12.67 6.28 12.34 9 12 C6.64314652 14.65822163 4.26440983 15.99775058 1.0625 17.5 C-2.27837841 19.07217808 -5.0557809 20.78726391 -8 23 C-9.98014432 23.72351427 -11.97821315 24.40265389 -14 25 C-14 23.66666667 -14 22.33333333 -14 21 C-14.66 20.67 -15.32 20.34 -16 20 C-15.6875 18.0625 -15.6875 18.0625 -15 16 C-14.01 15.67 -13.02 15.34 -12 15 C-11.938125 14.113125 -11.87625 13.22625 -11.8125 12.3125 C-10.56639602 7.23222992 -7.55682685 4.990708 -3.25 2.25 C-2.5075 1.8375 -1.765 1.425 -1 1 C-0.67 0.67 -0.34 0.34 0 0 Z " fill="#204154" transform="translate(371,278)"/>
<path d="M0 0 C2.76317285 1.31143965 5.18847401 2.80741885 7.6875 4.5625 C12.58678288 7.64048813 17.39966407 8.67506299 23.125 7.6015625 C24.77285475 7.14308678 26.39153731 6.58178438 28 6 C28 5.34 28 4.68 28 4 C30.63892176 2.21694476 32.97178863 1.00940379 36 0 C36 1.32 36 2.64 36 4 C35.34 4 34.68 4 34 4 C33.566875 5.11375 33.566875 5.11375 33.125 6.25 C32 9 32 9 30.9375 10.8125 C29.51539981 14.13073378 29.35851435 17.41485649 29 21 C28.7525 20.401875 28.505 19.80375 28.25 19.1875 C26.78143646 16.6175138 25.50234486 15.5672581 23 14 C18.90078211 13.18827368 14.7192846 13.02528747 11.015625 15.125 C9.18025218 16.61050012 9.18025218 16.61050012 7 19 C6.9175 17.96875 6.835 16.9375 6.75 15.875 C5.937749 11.67836985 4.47080566 9.42724656 2 6 C2 5.34 2 4.68 2 4 C1.34 4 0.68 4 0 4 C0 2.68 0 1.36 0 0 Z " fill="#B6D2DA" transform="translate(316,173)"/>
<path d="M0 0 C0.66 0 1.32 0 2 0 C4 4.875 4 4.875 4 6 C5.32 4.68 6.64 3.36 8 2 C8.33 2.99 8.66 3.98 9 5 C9.66 5.66 10.32 6.32 11 7 C10.66083005 10.18819752 10.01406317 12.95781049 9 16 C9.66 16 10.32 16 11 16 C10.34 17.98 9.68 19.96 9 22 C4.25 23 4.25 23 2 23 C-1.15110403 24.59959844 -1.15110403 24.59959844 -1.43237305 26.97119141 C-1.45855713 27.75671387 -1.48474121 28.54223633 -1.51171875 29.3515625 C-1.54716797 30.20234375 -1.58261719 31.053125 -1.61914062 31.9296875 C-1.64169922 32.81914062 -1.66425781 33.70859375 -1.6875 34.625 C-1.72166016 35.5221875 -1.75582031 36.419375 -1.79101562 37.34375 C-1.87362402 39.56237538 -1.94272719 41.7805994 -2 44 C-2.33 44 -2.66 44 -3 44 C-3.33987705 29.00009267 -3.19054207 14.6992831 0 0 Z " fill="#183C4E" transform="translate(218,167)"/>
<path d="M0 0 C0.66 0.33 1.32 0.66 2 1 C1.401875 1.556875 0.80375 2.11375 0.1875 2.6875 C-2.05099291 4.86113695 -2.05099291 4.86113695 -3.30078125 7.3515625 C-5.30052544 10.46840517 -7.50054707 12.35634179 -10.375 14.6875 C-11.15423828 15.3228064 -11.15423828 15.3228064 -11.94921875 15.97094727 C-17.87100012 20.7682615 -23.92387512 25.40071102 -30 30 C-30.71671875 30.58523437 -31.4334375 31.17046875 -32.171875 31.7734375 C-34.77899495 33.52265901 -36.94116204 33.20855713 -40 33 C-40 32.34 -40 31.68 -40 31 C-39.01 31 -38.02 31 -37 31 C-36.95875 30.4225 -36.9175 29.845 -36.875 29.25 C-35.56830297 25.88992192 -32.98714181 24.95515627 -30 23 C-26.92426394 20.49428452 -23.91628821 17.91934577 -20.90234375 15.33984375 C-18.34891628 13.2812932 -15.81313733 11.66383849 -13 10 C-12.175 9.154375 -11.35 8.30875 -10.5 7.4375 C-7.97567322 4.97628139 -6.24164761 4.19429122 -3 3 C-1.22722741 1.47992158 -1.22722741 1.47992158 0 0 Z " fill="#E2F4F5" transform="translate(375,143)"/>
<path d="M0 0 C3.8992823 0.57767145 6.04335873 2.48685492 9 5 C11.75606147 7.29671789 14.46085211 8.70741923 17.77734375 10.06640625 C27.99169549 14.35679301 37.96346818 19.30795608 48 24 C43.82412255 25.39195915 41.86525224 23.82323219 38 22 C38.495 23.485 38.495 23.485 39 25 C35.99154581 24.09046734 33.32150595 23.19459571 30.625 21.5625 C27.93667426 19.84790286 27.93667426 19.84790286 24.4296875 18.7265625 C19.50180304 16.91495585 15.05030801 14.41002925 10.5 11.8125 C9.67757812 11.34908203 8.85515625 10.88566406 8.0078125 10.40820312 C6.00228186 9.27717712 3.99982878 8.14106748 2 7 C2 6.01 2 5.02 2 4 C1.01 3.67 0.02 3.34 -1 3 C-0.67 2.01 -0.34 1.02 0 0 Z " fill="#D2EBEB" transform="translate(228,105)"/>
<path d="M0 0 C0 0.99 0 1.98 0 3 C0.15551489 5.2299724 0.32349235 7.45909096 0.5 9.6875 C0.5928125 10.86699219 0.685625 12.04648438 0.78125 13.26171875 C0.88953125 14.61716797 0.88953125 14.61716797 1 16 C-1.29013653 12.5647952 -1.17842973 11.014669 -1 7 C-1.763125 7.66 -2.52625 8.32 -3.3125 9 C-6 11 -6 11 -9 11 C-9 11.66 -9 12.32 -9 13 C-13.78226534 15.54375816 -17.25754182 16.53225397 -22.65625 15.71875 C-26.99849735 14.38712748 -30.41616118 11.71306674 -34 9 C-34.99 8.34 -35.98 7.68 -37 7 C-37 9.31 -37 11.62 -37 14 C-37.33 14 -37.66 14 -38 14 C-38.05395478 12.37536158 -38.09277195 10.75021459 -38.125 9.125 C-38.14820313 8.22007812 -38.17140625 7.31515625 -38.1953125 6.3828125 C-38 4 -38 4 -36 2 C-35.00033203 2.86625 -35.00033203 2.86625 -33.98046875 3.75 C-28.17126878 8.429859 -24.02331086 11.14727625 -16.4296875 10.5234375 C-12.87637048 9.7579319 -10.76921578 8.33844888 -8 6 C-6.54633254 4.91041378 -5.08779011 3.8273079 -3.625 2.75 C-2.41546424 1.83492051 -1.20670415 0.91881027 0 0 Z " fill="#1E3D4C" transform="translate(353,166)"/>
<path d="M0 0 C-3 2 -3 2 -7 2 C-7 2.66 -7 3.32 -7 4 C-8.15628906 4.36351562 -8.15628906 4.36351562 -9.3359375 4.734375 C-10.33882813 5.06953125 -11.34171875 5.4046875 -12.375 5.75 C-13.37273437 6.07484375 -14.37046875 6.3996875 -15.3984375 6.734375 C-18.45461252 7.89479222 -18.45461252 7.89479222 -20 12 C-22.97 11.01 -25.94 10.02 -29 9 C-20.52397503 -1.49412615 -12.69466462 -6.79016945 0 0 Z " fill="#B6D2D9" transform="translate(413,138)"/>
<path d="M0 0 C0.66 0 1.32 0 2 0 C2.33 1.65 2.66 3.3 3 5 C3.99 5.33 4.98 5.66 6 6 C5.67 7.32 5.34 8.64 5 10 C5.66 10 6.32 10 7 10 C7 9.01 7 8.02 7 7 C7.66 7 8.32 7 9 7 C10.25664978 9.90600261 11 11.79604584 11 15 C13.475 15.495 13.475 15.495 16 16 C16.33 17.32 16.66 18.64 17 20 C13.64405503 19.4213888 12.35999139 18.35999139 10 16 C9.01 16 8.02 16 7 16 C6.67 16.66 6.34 17.32 6 18 C5.34 18.33 4.68 18.66 4 19 C4.66 19.99 5.32 20.98 6 22 C5.625 24.1875 5.625 24.1875 5 26 C3.67492391 23.96560073 2.36518622 21.92366893 1.0625 19.875 C0.68931641 19.30523437 0.31613281 18.73546875 -0.06835938 18.1484375 C-2.41028893 14.43510776 -3.58174187 11.36847382 -4 7 C-3.34 6.67 -2.68 6.34 -2 6 C-1.27306096 4.02111039 -0.60183749 2.02045442 0 0 Z " fill="#183A4E" transform="translate(224,223)"/>
<path d="M0 0 C0.99 0.33 1.98 0.66 3 1 C0.16461901 14.00125916 -3.35481293 24.5223472 -13 34 C-14 31 -14 31 -13 28 C-11.04402816 26.60287726 -9.04563599 25.26220093 -7 24 C-7.639375 23.773125 -8.27875 23.54625 -8.9375 23.3125 C-11 22 -11 22 -11.859375 19.7578125 C-12.05468576 15.92755158 -10.66233741 14.53671073 -8.3125 11.5625 C-7.57644531 10.60859375 -6.84039062 9.6546875 -6.08203125 8.671875 C-5.39496094 7.79015625 -4.70789063 6.9084375 -4 6 C-2.62337362 4.02369254 -1.31074318 2.02072907 0 0 Z " fill="#1D3A4C" transform="translate(452,94)"/>
<path d="M0 0 C5.83610121 2.98613845 10.12823998 6.75438965 14 12 C11.69 12.66 9.38 13.32 7 14 C6.34 13.01 5.68 12.02 5 11 C2.55433882 10.0246298 0.19830282 9.19624594 -2.3125 8.4375 C-6.60346424 7.0931921 -10.84936062 5.74214457 -15 4 C-10.53197546 -0.91482699 -6.45614863 -1.94366446 0 0 Z " fill="#BAD5DB" transform="translate(270,135)"/>
<path d="M0 0 C0.66 0.99 1.32 1.98 2 3 C-1.47887296 6.58119276 -5.04469485 9.94280313 -9 13 C-9.62390625 13.48597656 -10.2478125 13.97195312 -10.890625 14.47265625 C-18.57760612 20.03859999 -27.66905319 23.36883825 -37 25 C-35.25 21.125 -35.25 21.125 -33 20 C-36.3 19.67 -39.6 19.34 -43 19 C-43 18.67 -43 18.34 -43 18 C-41.65421875 17.99613281 -41.65421875 17.99613281 -40.28125 17.9921875 C-26.10540329 17.55285341 -14.09212519 14.19011799 -3.8203125 3.953125 C-3.21960938 3.30859375 -2.61890625 2.6640625 -2 2 C-1.34 1.34 -0.68 0.68 0 0 Z " fill="#1F4456" transform="translate(316,205)"/>
<path d="M0 0 C1.875 1.125 1.875 1.125 3 3 C3.39365568 6.14924548 3.52854531 8.11909116 1.875 10.875 C-0.88090884 12.52854531 -2.85075452 12.39365568 -6 12 C-7.875 10.875 -7.875 10.875 -9 9 C-9.39365568 5.85075452 -9.52854531 3.88090884 -7.875 1.125 C-5.11909116 -0.52854531 -3.14924548 -0.39365568 0 0 Z " fill="#EDF4F5" transform="translate(295,162)"/>
<path d="M0 0 C4.63531569 0.87056878 9.21351888 1.34940472 13.91015625 1.734375 C13.91015625 2.064375 13.91015625 2.394375 13.91015625 2.734375 C7.38696491 3.65579157 1.90588764 3.65238382 -4.52734375 2.359375 C-19.84244489 -0.36143405 -35.57931887 -0.02891294 -51.08984375 -0.265625 C-51.08984375 -0.595625 -51.08984375 -0.925625 -51.08984375 -1.265625 C-34.31318255 -3.83073719 -16.63682735 -3.14351037 0 0 Z " fill="#40A09D" transform="translate(363.08984375,91.265625)"/>
<path d="M0 0 C1.875 1.125 1.875 1.125 3 3 C3.39310741 6.14485925 3.47555213 8.13281671 1.9375 10.9375 C-1.21566824 12.66665678 -3.62508255 11.8590699 -7 11 C-9.15502531 7.76746204 -9.46856135 6.74849077 -9 3 C-6.73529086 -0.64869805 -4.03159541 -0.50394943 0 0 Z " fill="#E6EDED" transform="translate(386,162)"/>
<path d="M0 0 C3.38055068 1.12685023 4.1079382 2.05384625 6.3125 4.75 C12.20404757 11.60717466 16.99257943 14.67501681 25.48828125 17.7890625 C26.31714844 18.18867188 27.14601563 18.58828125 28 19 C28.33 19.99 28.66 20.98 29 22 C29.66 22.33 30.32 22.66 31 23 C31 23.66 31 24.32 31 25 C24.76805616 24.22100702 19.33895166 21.47190004 15 17 C14.236875 16.5875 13.47375 16.175 12.6875 15.75 C9.62534089 13.75603593 7.71698366 11.5192306 5.42578125 8.70703125 C3.91956562 6.83645231 3.91956562 6.83645231 1.625 4.75 C0 3 0 3 0 0 Z " fill="#2F4A55" transform="translate(348,202)"/>
<path d="M0 0 C0 3.21193272 -0.19722504 4.39483387 -2 7 C-4.5390625 8.203125 -4.5390625 8.203125 -7.625 9.25 C-13.22614362 11.38313015 -16.42634933 13.90042982 -20.18359375 18.5234375 C-22 20 -22 20 -24.72265625 19.7265625 C-25.47417969 19.48679688 -26.22570312 19.24703125 -27 19 C-21.38601849 12.13203637 -15.99259969 7.7990419 -8 4 C-6.49846836 3.25307114 -4.9984054 2.50318077 -3.5 1.75 C-1.7675 0.88375 -1.7675 0.88375 0 0 Z " fill="#163748" transform="translate(406,127)"/>
<path d="M0 0 C9.95951524 2.62092506 17.6832471 9.03671342 25 16 C23.02 16.99 23.02 16.99 21 18 C20.5875 17.62488281 20.175 17.24976563 19.75 16.86328125 C13.39662274 11.23316792 7.35209455 6.91402167 -1 5 C-0.34 4.67 0.32 4.34 1 4 C0.67 2.68 0.34 1.36 0 0 Z " fill="#1B3E4D" transform="translate(264,129)"/>
<path d="M0 0 C4.10220899 2.05110449 4.73578213 2.72324465 6.9375 6.4375 C9.20710221 10.02959307 11.00759065 12.23864293 15 14 C14.34 16.31 13.68 18.62 13 21 C8.6310305 17.69900082 6.0861798 15.21544951 4 10 C4 9.34 4 8.68 4 8 C3.34 8 2.68 8 2 8 C1.67 9.65 1.34 11.3 1 13 C0.67 13 0.34 13 0 13 C0 8.71 0 4.42 0 0 Z " fill="#135D64" transform="translate(213,60)"/>
<path d="M0 0 C3.8992823 0.57767145 6.04335873 2.48685492 9 5 C12.38509414 7.82091178 15.95789026 9.27836067 20 11 C20.66 11.66 21.32 12.32 22 13 C19.4609375 14.2421875 19.4609375 14.2421875 16 15 C13.24923313 13.82783168 11.09678822 12.71953561 8.625 11.125 C7.98433594 10.73441406 7.34367188 10.34382813 6.68359375 9.94140625 C5.11111079 8.97914056 3.55392388 7.99195689 2 7 C2 6.01 2 5.02 2 4 C1.01 3.67 0.02 3.34 -1 3 C-0.67 2.01 -0.34 1.02 0 0 Z " fill="#B6D8DC" transform="translate(228,105)"/>
<path d="M0 0 C0.66 0 1.32 0 2 0 C3.1875 2 3.1875 2 4 5 C3.41169619 7.09126976 2.5972731 9.00187038 1.73828125 10.99609375 C0.73926783 13.70770159 0.78577741 16.14369878 1 19 C1.66 19.33 2.32 19.66 3 20 C1.25 23.875 1.25 23.875 -1 25 C-1.33 31.27 -1.66 37.54 -2 44 C-2.33 44 -2.66 44 -3 44 C-3.33987705 29.00009267 -3.19054207 14.6992831 0 0 Z " fill="#4D6674" transform="translate(218,167)"/>
<path d="M0 0 C6.54626866 3.59402985 6.54626866 3.59402985 9.375 6.125 C12.56639192 8.40456566 15.28582985 8.88743597 19.109375 9.5078125 C19.73328125 9.67023438 20.3571875 9.83265625 21 10 C21.33 10.66 21.66 11.32 22 12 C18.71249993 13.64375003 15.53839505 13.65592697 12 13 C8.75788325 11.30050332 5.90720984 9.21337869 3 7 C2.01 6.34 1.02 5.68 0 5 C0 7.31 0 9.62 0 12 C-0.33 12 -0.66 12 -1 12 C-1.02698189 10.37509046 -1.04638757 8.75005367 -1.0625 7.125 C-1.07410156 6.22007812 -1.08570313 5.31515625 -1.09765625 4.3828125 C-1 2 -1 2 0 0 Z " fill="#214151" transform="translate(316,168)"/>
<path d="M0 0 C0.90025148 2.70075443 0.98736509 4.73282492 0.9375 7.625 C0.87513708 14.33525053 2.06611134 20.53803965 5.1875 26.5 C5.785625 27.655 6.38375 28.81 7 30 C6.67 30.66 6.34 31.32 6 32 C5.34 31.67 4.68 31.34 4 31 C3.01 32.485 3.01 32.485 2 34 C-1.75901726 24.24445521 -3.37195695 10.11587085 0 0 Z " fill="#B4CDD6" transform="translate(238,164)"/>
<path d="M0 0 C0.99 0 1.98 0 3 0 C3.33 1.65 3.66 3.3 4 5 C4.99 5.33 5.98 5.66 7 6 C6.01 6.495 6.01 6.495 5 7 C4.8453125 7.8971875 4.8453125 7.8971875 4.6875 8.8125 C3.69606181 11.96707605 1.62311727 13.11673632 -1 15 C-2.98 12.69 -4.96 10.38 -7 8 C-5.35 8 -3.7 8 -2 8 C-1.855625 7.4225 -1.71125 6.845 -1.5625 6.25 C-1.04166667 4.16666667 -0.52083333 2.08333333 0 0 Z " fill="#1D3D4E" transform="translate(240,245)"/>
<path d="M0 0 C5.91969002 1.75990784 11.41634992 4.39694605 17 7 C17 7.99 17 8.98 17 10 C18.65 10 20.3 10 22 10 C21.01 11.485 21.01 11.485 20 13 C11.29658287 10.38897486 5.45889809 7.36124137 0 0 Z " fill="#B9DAE5" transform="translate(355,208)"/>
<path d="M0 0 C0.99 0.33 1.98 0.66 3 1 C3 2.32 3 3.64 3 5 C0.99031875 6.04261659 -1.03338189 7.05823523 -3.0625 8.0625 C-4.18785156 8.63097656 -5.31320312 9.19945313 -6.47265625 9.78515625 C-10.48068991 11.16555323 -12.90745091 10.91235171 -17 10 C-14.61185068 7.99395457 -12.52048925 6.79576394 -9.625 5.5625 C-5.93592225 4.11370854 -5.93592225 4.11370854 -2.75 1.75 C-1.8425 1.1725 -0.935 0.595 0 0 Z " fill="#BADEE3" transform="translate(434,108)"/>
<path d="M0 0 C0.66 0 1.32 0 2 0 C3.00496852 3.01490557 3.10335303 5.04181692 3.0625 8.1875 C3.05347656 9.08855469 3.04445313 9.98960938 3.03515625 10.91796875 C3.02355469 11.60503906 3.01195312 12.29210937 3 13 C2.34 13 1.68 13 1 13 C0.67 11.02 0.34 9.04 0 7 C-1.0828125 8.1446875 -1.0828125 8.1446875 -2.1875 9.3125 C-4.69790967 11.71133591 -6.96808302 13.35410221 -10 15 C-10.66 14.34 -11.32 13.68 -12 13 C-10.948125 12.5359375 -10.948125 12.5359375 -9.875 12.0625 C-6.32387982 9.51495726 -4.53644242 6.62763251 -2.234375 2.9609375 C-1 1 -1 1 0 0 Z " fill="#316972" transform="translate(453,60)"/>
<path d="M0 0 C0 0.66 0 1.32 0 2 C-1.27875 2.226875 -2.5575 2.45375 -3.875 2.6875 C-8.56167048 3.71178805 -12.40608172 5.58951047 -16.625 7.82421875 C-19.69989257 9.34649287 -22.67087866 10.20390577 -26 11 C-26 11.66 -26 12.32 -26 13 C-27.65 13.66 -29.3 14.32 -31 15 C-28.81981814 10.51851506 -26.65170644 8.78150459 -22 7 C-21.34 7.33 -20.68 7.66 -20 8 C-19.67 7.01 -19.34 6.02 -19 5 C-16.3700303 3.76444376 -13.84864117 2.72577405 -11.125 1.75 C-10.39152344 1.46898438 -9.65804688 1.18796875 -8.90234375 0.8984375 C-3.38969156 -1.12989719 -3.38969156 -1.12989719 0 0 Z " fill="#0C8285" transform="translate(386,98)"/>
<path d="M0 0 C0.33 0 0.66 0 1 0 C2.22528398 7.35170386 2.84461354 13.88846615 0 21 C-0.33 21 -0.66 21 -1 21 C-1.33 17.7 -1.66 14.4 -2 11 C-3.98 11.99 -3.98 11.99 -6 13 C-6.99 13 -7.98 13 -9 13 C-8.525625 12.566875 -8.05125 12.13375 -7.5625 11.6875 C-5.76313043 9.97690387 -5.76313043 9.97690387 -5 7 C-4.34 7 -3.68 7 -3 7 C-2.690625 6.030625 -2.38125 5.06125 -2.0625 4.0625 C-1 1 -1 1 0 0 Z " fill="#1F9191" transform="translate(453,66)"/>
<path d="M0 0 C3.63 0 7.26 0 11 0 C11.33 0.99 11.66 1.98 12 3 C10 6 10 6 7.8359375 6.51171875 C7.02382813 6.56972656 6.21171875 6.62773437 5.375 6.6875 C4.14910156 6.78611328 4.14910156 6.78611328 2.8984375 6.88671875 C2.27195312 6.92410156 1.64546875 6.96148437 1 7 C-0.0625 5.1875 -0.0625 5.1875 -1 3 C-0.67 2.01 -0.34 1.02 0 0 Z " fill="#CEE9F0" transform="translate(281,215)"/>
<path d="M0 0 C1.9375 0.625 1.9375 0.625 4 2 C4.8671875 4.75390625 4.8671875 4.75390625 5 8 C3.41796875 10.73828125 3.41796875 10.73828125 1.1875 13.3125 C0.09501953 14.60607422 0.09501953 14.60607422 -1.01953125 15.92578125 C-3 18 -3 18 -5 19 C-4.875 16.25 -4.875 16.25 -4 13 C-0.9375 10.625 -0.9375 10.625 2 9 C1.360625 8.773125 0.72125 8.54625 0.0625 8.3125 C-2 7 -2 7 -2.75 4.375 C-2.8325 3.59125 -2.915 2.8075 -3 2 C-2.01 1.34 -1.02 0.68 0 0 Z " fill="#16384E" transform="translate(443,109)"/>
<path d="M0 0 C12.08060905 2.83743842 12.08060905 2.83743842 17 7 C17.70961351 8.31098089 18.38484813 9.6421302 19 11 C11.85178015 9.29875352 5.61987307 6.87327158 0 2 C0 1.34 0 0.68 0 0 Z " fill="#E4ECEC" transform="translate(266,127)"/>
<path d="M0 0 C0.66 0.99 1.32 1.98 2 3 C-2.97524653 8.12157731 -8.40998861 12.56087331 -14 17 C-16.475 16.01 -16.475 16.01 -19 15 C-16.65683202 13.12546562 -14.42687671 11.70241675 -11.75 10.3125 C-7.0722711 7.72503608 -3.61926473 3.8730833 0 0 Z " fill="#294853" transform="translate(316,205)"/>
<path d="M0 0 C0.99 0 1.98 0 3 0 C2 2 1 4 0 6 C1.65 5.34 3.3 4.68 5 4 C4.25 5.9375 4.25 5.9375 3 8 C0.875 8.75 0.875 8.75 -1 9 C-1.33 8.01 -1.66 7.02 -2 6 C-6.15340659 7.1062562 -6.15340659 7.1062562 -9.5625 9.5625 C-11.51990658 11.51990658 -13.31396579 11.6370224 -16 12 C-12.27501895 6.7996343 -8.83942286 4.03193846 -2.85546875 1.7265625 C-1.01536058 1.14889414 -1.01536058 1.14889414 0 0 Z " fill="#218F8B" transform="translate(438,103)"/>
<path d="M0 0 C1.875 0.25 1.875 0.25 4 1 C5.25 3.0625 5.25 3.0625 6 5 C4.68 6.32 3.36 7.64 2 9 C2.99 9.66 3.98 10.32 5 11 C4.34 11 3.68 11 3 11 C3.33 12.98 3.66 14.96 4 17 C2.02 15.35 0.04 13.7 -2 12 C-1.62875 11.071875 -1.2575 10.14375 -0.875 9.1875 C-0.58625 8.135625 -0.2975 7.08375 0 6 C-0.66 5.01 -1.32 4.02 -2 3 C-1.34 3 -0.68 3 0 3 C0 2.01 0 1.02 0 0 Z " fill="#2D5061" transform="translate(322,297)"/>
<path d="M0 0 C3.875 1.75 3.875 1.75 5 4 C3.54195831 4.81302325 2.08355685 5.62540131 0.625 6.4375 C-0.18710937 6.88996094 -0.99921875 7.34242188 -1.8359375 7.80859375 C-3.20996622 8.5650536 -4.59709261 9.29854631 -6 10 C-6 9.34 -6 8.68 -6 8 C-7.65 8.33 -9.3 8.66 -11 9 C-7.56638098 5.36440339 -4.2026393 2.63886654 0 0 Z " fill="#D0EBEC" transform="translate(393,128)"/>
<path d="M0 0 C0.66 0 1.32 0 2 0 C2 1.32 2 2.64 2 4 C1.34 4 0.68 4 0 4 C-0.433125 5.11375 -0.433125 5.11375 -0.875 6.25 C-2 9 -2 9 -3.0625 10.8125 C-4.48460019 14.13073378 -4.64148565 17.41485649 -5 21 C-6.33333333 18.33333333 -7.66666667 15.66666667 -9 13 C-7.625 11.5 -7.625 11.5 -6 10 C-5.34 10 -4.68 10 -4 10 C-4.33 8.68 -4.66 7.36 -5 6 C-4.01 5.67 -3.02 5.34 -2 5 C-1.33820153 3.01954441 -1.33820153 3.01954441 -1 1 C-0.67 0.67 -0.34 0.34 0 0 Z " fill="#BDD5DC" transform="translate(350,173)"/>
<path d="M0 0 C0.33 0.66 0.66 1.32 1 2 C1.99 1.67 2.98 1.34 4 1 C6 6.75 6 6.75 6 9 C7.65 9 9.3 9 11 9 C11 9.99 11 10.98 11 12 C5.03347646 10.42986223 0.17090975 7.24970218 -5 4 C-4.0409375 3.8453125 -4.0409375 3.8453125 -3.0625 3.6875 C-2.381875 3.460625 -1.70125 3.23375 -1 3 C-0.67 2.01 -0.34 1.02 0 0 Z " fill="#224353" transform="translate(284,282)"/>
<path d="M0 0 C0.66 0 1.32 0 2 0 C2.66 0.66 3.32 1.32 4 2 C6.95377498 4.36980013 6.95377498 4.36980013 11 4 C9.87548273 6.9719385 8.77706209 9.33440687 7 12 C6.34 12 5.68 12 5 12 C4.16180842 10.37750059 3.3295884 8.75191503 2.5 7.125 C2.0359375 6.22007812 1.571875 5.31515625 1.09375 4.3828125 C0 2 0 2 0 0 Z " fill="#1D3A47" transform="translate(328,229)"/>
<path d="M0 0 C3.66881155 0.70554068 6.70450534 2.27735506 10 4 C9.01 5.32 8.02 6.64 7 8 C5.35 7.67 3.7 7.34 2 7 C2 6.34 2 5.68 2 5 C1.01 4.67 0.02 4.34 -1 4 C-0.67 2.68 -0.34 1.36 0 0 Z " fill="#204456" transform="translate(329,313)"/>
<path d="M0 0 C4.17148265 -0.19402245 7.28944583 -0.01430083 11 2 C11.33 2.99 11.66 3.98 12 5 C12.66 5.33 13.32 5.66 14 6 C14 6.66 14 7.32 14 8 C9.30943359 7.4136792 4.91031269 5.64951093 1 3 C0.67 2.01 0.34 1.02 0 0 Z " fill="#22404D" transform="translate(365,219)"/>
<path d="M0 0 C4.40408789 2.20204395 5.66652994 3.76518396 8 8 C7.67 8.99 7.34 9.98 7 11 C6.01 10.67 5.02 10.34 4 10 C4 9.34 4 8.68 4 8 C3.34 8 2.68 8 2 8 C1.67 9.65 1.34 11.3 1 13 C0.67 13 0.34 13 0 13 C0 8.71 0 4.42 0 0 Z " fill="#3B717A" transform="translate(213,60)"/>
<path d="M0 0 C1.32 0 2.64 0 4 0 C4.93065133 2.60582371 5.14917407 3.64198224 4.0625 6.25 C3.711875 6.8275 3.36125 7.405 3 8 C1.33333333 8 -0.33333333 8 -2 8 C-2.33 8.66 -2.66 9.32 -3 10 C-3.99 10 -4.98 10 -6 10 C-5.6875 8.0625 -5.6875 8.0625 -5 6 C-4.01 5.67 -3.02 5.34 -2 5 C-0.78130071 2.49552484 -0.78130071 2.49552484 0 0 Z " fill="#254759" transform="translate(234,160)"/>
<path d="M0 0 C0.33 0.99 0.66 1.98 1 3 C-0.4562545 3.67119549 -1.91507867 4.33681807 -3.375 5 C-4.59316406 5.556875 -4.59316406 5.556875 -5.8359375 6.125 C-8 7 -8 7 -10 7 C-10.33 5.35 -10.66 3.7 -11 2 C-7.17679443 0.57741188 -4.08718695 -0.24042276 0 0 Z " fill="#173646" transform="translate(299,220)"/>
<path d="M0 0 C0.33 0.66 0.66 1.32 1 2 C1.66 2 2.32 2 3 2 C3.33773437 2.61488281 3.67546875 3.22976562 4.0234375 3.86328125 C4.46945313 4.67152344 4.91546875 5.47976562 5.375 6.3125 C5.81585938 7.11300781 6.25671875 7.91351563 6.7109375 8.73828125 C7.73513335 10.53527943 8.85267138 12.27900708 10 14 C5.125 13.125 5.125 13.125 4 12 C3.95936168 10.33382885 3.957279 8.66611905 4 7 C1.66924071 7.95865509 1.66924071 7.95865509 0 11 C0 7.37 0 3.74 0 0 Z " fill="#0A8483" transform="translate(214,66)"/>
<path d="M0 0 C0.33 0 0.66 0 1 0 C2.33257403 19.96810934 2.33257403 19.96810934 1 29 C0.67 29 0.34 29 0 29 C-0.19800942 25.29215008 -0.38153245 21.58371765 -0.5625 17.875 C-0.61857422 16.82828125 -0.67464844 15.7815625 -0.73242188 14.703125 C-0.97221468 9.65148993 -1.16052 4.96874491 0 0 Z " fill="#6B808A" transform="translate(452,183)"/>
<path d="M0 0 C1.98 0.66 3.96 1.32 6 2 C6.33 1.34 6.66 0.68 7 0 C9 1.625 9 1.625 11 4 C11.25 7.25 11.25 7.25 11 10 C9.72390677 9.09066991 8.45434447 8.17217147 7.1875 7.25 C6.47980469 6.73953125 5.77210938 6.2290625 5.04296875 5.703125 C2.97022309 3.97517642 1.52624146 2.21473524 0 0 Z " fill="#DEE6EA" transform="translate(279,136)"/>
<path d="M0 0 C1.98 0.99 1.98 0.99 4 2 C4 3.32 4 4.64 4 6 C4.99 6.33 5.98 6.66 7 7 C7.6875 9.0625 7.6875 9.0625 8 11 C9.32 11 10.64 11 12 11 C12.33 10.34 12.66 9.68 13 9 C13.66 9.33 14.32 9.66 15 10 C14.01 11.98 13.02 13.96 12 16 C8.59402245 14.86467415 8.46547428 14.51883178 6.9375 11.5 C5.57554472 8.66980932 5.57554472 8.66980932 3 7 C0 2.5 0 2.5 0 0 Z " fill="#0A7D80" transform="translate(323,120)"/>
<path d="M0 0 C0.33 0.99 0.66 1.98 1 3 C-0.07869393 3.96355244 -1.16318743 4.92061417 -2.25 5.875 C-2.85328125 6.40867187 -3.4565625 6.94234375 -4.078125 7.4921875 C-5.97907317 8.9835818 -7.8404785 9.93794025 -10 11 C-11.37086915 12.29470975 -12.71340837 13.62150897 -14 15 C-14.99 14.34 -15.98 13.68 -17 13 C-10.71428571 8.57142857 -10.71428571 8.57142857 -7 8 C-7 7.34 -7 6.68 -7 6 C-5.46875 4.4921875 -5.46875 4.4921875 -3.5 2.875 C-2.8503125 2.33617188 -2.200625 1.79734375 -1.53125 1.2421875 C-0.77328125 0.62730469 -0.77328125 0.62730469 0 0 Z " fill="#098385" transform="translate(443,80)"/>
<path d="M0 0 C-0.33 0.66 -0.66 1.32 -1 2 C-1.99 2 -2.98 2 -4 2 C-4 2.66 -4 3.32 -4 4 C-2.68 4.33 -1.36 4.66 0 5 C-1.77007714 5.08114106 -3.54122098 5.13925505 -5.3125 5.1875 C-6.29863281 5.22230469 -7.28476562 5.25710937 -8.30078125 5.29296875 C-11 5 -11 5 -12.85546875 3.48828125 C-13.23316406 2.99714844 -13.61085938 2.50601563 -14 2 C-12.02 2 -10.04 2 -8 2 C-7.67 1.34 -7.34 0.68 -7 0 C-2.52459016 -1.26229508 -2.52459016 -1.26229508 0 0 Z " fill="#C8DCDF" transform="translate(339,172)"/>
<path d="M0 0 C7.75 0.75 7.75 0.75 10 3 C10.639375 3.0825 11.27875 3.165 11.9375 3.25 C14 4 14 4 15.75 7.0625 C16.1625 8.031875 16.575 9.00125 17 10 C16.42121094 9.70996094 15.84242188 9.41992188 15.24609375 9.12109375 C13.84455525 8.42154323 12.44120304 7.7256007 11.03515625 7.03515625 C7.25941555 5.1734544 3.52545556 3.31358021 0 1 C0 0.67 0 0.34 0 0 Z " fill="#536975" transform="translate(301,297)"/>
<path d="M0 0 C3.875 1.75 3.875 1.75 5 4 C4.67 4.66 4.34 5.32 4 6 C4.99 6 5.98 6 7 6 C7 6.66 7 7.32 7 8 C7.99 8.33 8.98 8.66 10 9 C10 9.66 10 10.32 10 11 C5.08351995 9.77087999 2.68940779 8.34442797 0 4 C0 2.68 0 1.36 0 0 Z " fill="#E7FAF8" transform="translate(289,140)"/>
<path d="M0 0 C-1.485 2.475 -1.485 2.475 -3 5 C-2.34 5.33 -1.68 5.66 -1 6 C-3.64 5.67 -6.28 5.34 -9 5 C-9 4.34 -9 3.68 -9 3 C-9.66 2.67 -10.32 2.34 -11 2 C-7.36576791 -0.32590854 -4.22911669 -0.16265833 0 0 Z " fill="#098481" transform="translate(291,95)"/>
<path d="M0 0 C6.72198191 13.14117184 6.72198191 13.14117184 6 20 C1.81999901 15.42190367 -0.1875 9.08177941 -0.1875 2.9375 C-0.125625 1.968125 -0.06375 0.99875 0 0 Z " fill="#409997" transform="translate(213,73)"/>
<path d="M0 0 C0.33 0.66 0.66 1.32 1 2 C0.67 2.66 0.34 3.32 0 4 C-0.66 4 -1.32 4 -2 4 C-2.103125 4.598125 -2.20625 5.19625 -2.3125 5.8125 C-3.09824033 8.31258286 -3.96918853 9.37535082 -6 11 C-6.66 11 -7.32 11 -8 11 C-9.0625 9.125 -9.0625 9.125 -10 7 C-9.67 6.34 -9.34 5.68 -9 5 C-8.236875 4.87625 -7.47375 4.7525 -6.6875 4.625 C-3.40472026 3.86156285 -2.1786618 2.50142651 0 0 Z " fill="#03555F" transform="translate(450,69)"/>
<path d="M0 0 C0.66 0 1.32 0 2 0 C1.56615128 5.42310905 0.35497322 8.70144056 -3 13 C-3.33 13 -3.66 13 -4 13 C-4.07427838 9.65747276 -4.06546953 7.1964086 -3 4 C-2.34 4 -1.68 4 -1 4 C-0.67 2.68 -0.34 1.36 0 0 Z " fill="#426375" transform="translate(438,221)"/>
<path d="M0 0 C-4.03111426 4.78694818 -6.97050625 6.11040256 -13 7 C-13.66 6.34 -14.32 5.68 -15 5 C-13.06891037 3.96709159 -11.129882 2.94901328 -9.1875 1.9375 C-8.10855469 1.36902344 -7.02960938 0.80054688 -5.91796875 0.21484375 C-3 -1 -3 -1 0 0 Z " fill="#D3E9F1" transform="translate(313,209)"/>
<path d="M0 0 C0.66 0.33 1.32 0.66 2 1 C1.175 1.763125 0.35 2.52625 -0.5 3.3125 C-3.34055197 5.75434142 -3.34055197 5.75434142 -3 9 C-5 10.6875 -5 10.6875 -7 12 C-8.32 11.34 -9.64 10.68 -11 10 C-10.278125 9.443125 -9.55625 8.88625 -8.8125 8.3125 C-6.02417676 6.01987867 -3.51572008 3.58560119 -1 1 C-0.67 0.67 -0.34 0.34 0 0 Z " fill="#294557" transform="translate(390,135)"/>
<path d="M0 0 C0 0.66 0 1.32 0 2 C-0.99 2.495 -0.99 2.495 -2 3 C-1.01 3.99 -0.02 4.98 1 6 C-1.31 6.33 -3.62 6.66 -6 7 C-5.67 6.01 -5.34 5.02 -5 4 C-5.66 4 -6.32 4 -7 4 C-7.33 4.66 -7.66 5.32 -8 6 C-8.66 5.67 -9.32 5.34 -10 5 C-10.33 5.66 -10.66 6.32 -11 7 C-11.66 6.34 -12.32 5.68 -13 5 C-11.21046815 4.16209211 -9.41830305 3.32980604 -7.625 2.5 C-6.62726563 2.0359375 -5.62953125 1.571875 -4.6015625 1.09375 C-2 0 -2 0 0 0 Z " fill="#274453" transform="translate(423,120)"/>
<path d="M0 0 C0.66 0 1.32 0 2 0 C1.42118962 3.50373216 0.2149208 5.16793567 -2.3125 7.625 C-2.90675781 8.21539062 -3.50101562 8.80578125 -4.11328125 9.4140625 C-5.99137178 10.99274729 -7.76695897 12.00425102 -10 13 C-10 12.01 -10 11.02 -10 10 C-9.01 10 -8.02 10 -7 10 C-7.66 9.67 -8.32 9.34 -9 9 C-9 8.34 -9 7.68 -9 7 C-7.35 7 -5.7 7 -4 7 C-3.67 5.68 -3.34 4.36 -3 3 C-2.01 3 -1.02 3 0 3 C0 2.01 0 1.02 0 0 Z " fill="#40596A" transform="translate(430,254)"/>
<path d="M0 0 C3 1 3 1 4.75 3.4375 C5.36875 4.7059375 5.36875 4.7059375 6 6 C4.89131683 8.21736634 3.50559539 10.03617993 2 12 C0.40861915 7.82262526 -0.21278058 4.46839215 0 0 Z " fill="#5F7382" transform="translate(214,94)"/>
<path d="M0 0 C1.97986082 0.11347619 3.95891598 0.2410935 5.9375 0.375 C7.03964844 0.44460937 8.14179688 0.51421875 9.27734375 0.5859375 C10.62505859 0.79089844 10.62505859 0.79089844 12 1 C12.33 1.66 12.66 2.32 13 3 C9.87293041 4.5635348 6.42017557 4.39958487 3 4 C2.01 3.34 1.02 2.68 0 2 C0 1.34 0 0.68 0 0 Z " fill="#143444" transform="translate(325,177)"/>
<path d="M0 0 C3.91211733 1.15585285 6.8745041 2.35534962 10 5 C9.34 5 8.68 5 8 5 C8 5.66 8 6.32 8 7 C3.545 6.01 3.545 6.01 -1 5 C-0.34 4.67 0.32 4.34 1 4 C0.67 2.68 0.34 1.36 0 0 Z " fill="#264351" transform="translate(264,129)"/>
<path d="M0 0 C3.26460973 1.80412643 4.88929795 2.83394693 7 6 C6.01 6.495 6.01 6.495 5 7 C5 6.34 5 5.68 5 5 C4.01 5 3.02 5 2 5 C1.67 6.98 1.34 8.96 1 11 C-0.98362069 8.08291076 -0.9876191 6.87619096 -0.625 3.25 C-0.41875 2.1775 -0.2125 1.105 0 0 Z " fill="#294456" transform="translate(218,101)"/>
<path d="M0 0 C4.9723422 1.49170266 9.41845739 3.60457417 14 6 C12.02 6.99 12.02 6.99 10 8 C10 7.34 10 6.68 10 6 C9.278125 6.12375 8.55625 6.2475 7.8125 6.375 C4.54986264 5.93998169 4.1958004 5.44438849 2.1875 3 C1.465625 2.01 0.74375 1.02 0 0 Z " fill="#CAE2EB" transform="translate(355,208)"/>
<path d="M0 0 C4.37648119 2.5985357 8.68958661 5.29395884 13 8 C9.89448334 8 8.64738916 7.4606285 6 6 C5.67 6.66 5.34 7.32 5 8 C3.0625 7.375 3.0625 7.375 1 6 C0.25 2.875 0.25 2.875 0 0 Z " fill="#3C747B" transform="translate(228,75)"/>
<path d="M0 0 C-5.70292206 3.80194804 -12.31746568 6.48755574 -19 8 C-19 7.34 -19 6.68 -19 6 C-16.58967749 4.79783666 -14.17316521 3.61325022 -11.75 2.4375 C-11.06808594 2.09525391 -10.38617188 1.75300781 -9.68359375 1.40039062 C-5.97831091 -0.38030356 -3.92128522 -1.3058334 0 0 Z " fill="#28908C" transform="translate(410,121)"/>
<path d="M0 0 C0 0.99 0 1.98 0 3 C-1.65 3 -3.3 3 -5 3 C-5 3.99 -5 4.98 -5 6 C-9.875 4.25 -9.875 4.25 -11 2 C-3.375 0 -3.375 0 0 0 Z " fill="#DBE9ED" transform="translate(291,227)"/>
<path d="M0 0 C0.33 0.99 0.66 1.98 1 3 C-0.11328125 5.140625 -0.11328125 5.140625 -2 7 C-4.48046875 7.609375 -4.48046875 7.609375 -7.1875 7.75 C-8.08855469 7.80671875 -8.98960937 7.8634375 -9.91796875 7.921875 C-10.60503906 7.94765625 -11.29210937 7.9734375 -12 8 C-8.82090351 5.52966312 -5.60050479 3.8002524 -2 2 C-1.34 1.34 -0.68 0.68 0 0 Z " fill="#C5D2D7" transform="translate(399,192)"/>
<path d="M0 0 C-4.29456388 2.30440013 -8.31479085 3.78184562 -13 5 C-13 5.66 -13 6.32 -13 7 C-14.65 7.66 -16.3 8.32 -18 9 C-15.78392101 4.44472653 -13.66784281 2.88509036 -9 1 C-2.4 -1.2 -2.4 -1.2 0 0 Z " fill="#06777B" transform="translate(373,104)"/>
<path d="M0 0 C6.75 0.875 6.75 0.875 9 2 C8.67 2.99 8.34 3.98 8 5 C5.69 4.67 3.38 4.34 1 4 C0.67 2.68 0.34 1.36 0 0 Z " fill="#E9F9FB" transform="translate(323,170)"/>
<path d="M0 0 C1.98 0 3.96 0 6 0 C6.33 0.66 6.66 1.32 7 2 C7.99 2.33 8.98 2.66 10 3 C10 4.65 10 6.3 10 8 C6.01618925 5.83735988 3.11016455 3.28788824 0 0 Z " fill="#D9E4E7" transform="translate(310,162)"/>
<path d="M0 0 C1.65 0 3.3 0 5 0 C5.99 1.98 6.98 3.96 8 6 C2.25 5.25 2.25 5.25 0 3 C0 2.01 0 1.02 0 0 Z " fill="#EDF8F9" transform="translate(307,157)"/>
<path d="M0 0 C1.92838381 5.78515142 -1.6087114 11.67394812 -4 17 C-4.33 17 -4.66 17 -5 17 C-4.35939198 10.85016303 -2.78504733 5.57009465 0 0 Z " fill="#077A7C" transform="translate(340,148)"/>
<path d="M0 0 C0 3.24244455 -0.08730376 4.42201811 -2 7 C-5.625 8.25 -5.625 8.25 -9 9 C-8.67 8.34 -8.34 7.68 -8 7 C-7.01 7 -6.02 7 -5 7 C-5.83333333 4.83333333 -5.83333333 4.83333333 -8 4 C-5.36 2.68 -2.72 1.36 0 0 Z " fill="#324F5B" transform="translate(406,127)"/>
<path d="M0 0 C0.66 0 1.32 0 2 0 C2.33 1.65 2.66 3.3 3 5 C2.01 4.67 1.02 4.34 0 4 C0 2.68 0 1.36 0 0 Z M-1 5 C-0.01 5.495 -0.01 5.495 1 6 C0.67 6.66 0.34 7.32 0 8 C0.66 8 1.32 8 2 8 C2 9.65 2 11.3 2 13 C1.01 13 0.02 13 -1 13 C-1 10.36 -1 7.72 -1 5 Z " fill="#4B6C7C" transform="translate(442,194)"/>
<path d="M0 0 C0.99 0.33 1.98 0.66 3 1 C1.73299277 1.9841125 0.4612381 2.96211497 -0.8125 3.9375 C-1.87404297 4.75541016 -1.87404297 4.75541016 -2.95703125 5.58984375 C-5 7 -5 7 -8 8 C-8.33 8.99 -8.66 9.98 -9 11 C-8.84817368 8.34303932 -8.52675976 6.55765476 -6.66796875 4.58984375 C-4.5534335 2.82515862 -2.46839412 1.23419706 0 0 Z " fill="#0C8587" transform="translate(352,112)"/>
<path d="M0 0 C0.99 0 1.98 0 3 0 C2 2 1 4 0 6 C1.65 5.34 3.3 4.68 5 4 C4.25 5.9375 4.25 5.9375 3 8 C0.875 8.75 0.875 8.75 -1 9 C-1.66 7.35 -2.32 5.7 -3 4 C-2.505 3.525625 -2.01 3.05125 -1.5 2.5625 C0.11542197 1.24076302 0.11542197 1.24076302 0 0 Z " fill="#82A2AC" transform="translate(438,103)"/>
<path d="M0 0 C1.32 0.66 2.64 1.32 4 2 C-0.455 4.97 -0.455 4.97 -5 8 C-5.66 7.67 -6.32 7.34 -7 7 C-6.67 6.01 -6.34 5.02 -6 4 C-5.01 4 -4.02 4 -3 4 C-3 3.34 -3 2.68 -3 2 C-2.01 1.34 -1.02 0.68 0 0 Z " fill="#43606E" transform="translate(409,271)"/>
<path d="M0 0 C0.33 0.66 0.66 1.32 1 2 C2.32 1.67 3.64 1.34 5 1 C5 1.66 5 2.32 5 3 C2.69723426 5.21747812 1.47519908 5.96760006 -1.75 6.1875 C-2.86375 6.0946875 -2.86375 6.0946875 -4 6 C-3.6875 4.125 -3.6875 4.125 -3 2 C-2.01 1.34 -1.02 0.68 0 0 Z " fill="#436576" transform="translate(396,264)"/>
<path d="M0 0 C2.31 0.33 4.62 0.66 7 1 C7.66 2.98 8.32 4.96 9 7 C4.58110387 5.64978174 2.65654657 3.73884332 0 0 Z " fill="#3B5161" transform="translate(240,260)"/>
<path d="M0 0 C3.96 0 7.92 0 12 0 C11.34 1.65 10.68 3.3 10 5 C8.51800098 4.55090939 7.03944764 4.09043436 5.5625 3.625 C4.73878906 3.36976563 3.91507812 3.11453125 3.06640625 2.8515625 C1 2 1 2 0 0 Z " fill="#264151" transform="translate(363,195)"/>
<path d="M0 0 C-0.33 0.66 -0.66 1.32 -1 2 C-0.34 2.33 0.32 2.66 1 3 C-2.50776784 4.60355101 -5.14354879 5.22036864 -9 5 C-8.360625 4.690625 -7.72125 4.38125 -7.0625 4.0625 C-5.06389179 3.1654837 -5.06389179 3.1654837 -4 2 C-6.31 1.67 -8.62 1.34 -11 1 C-11 0.67 -11 0.34 -11 0 C-9.54263913 -0.19491452 -8.08405407 -0.38069358 -6.625 -0.5625 C-5.81289063 -0.66691406 -5.00078125 -0.77132812 -4.1640625 -0.87890625 C-2 -1 -2 -1 0 0 Z " fill="#2E4D5C" transform="translate(341,177)"/>
<path d="M0 0 C0 0.99 0 1.98 0 3 C0.15551489 5.2299724 0.32349235 7.45909096 0.5 9.6875 C0.5928125 10.86699219 0.685625 12.04648438 0.78125 13.26171875 C0.8534375 14.16535156 0.925625 15.06898438 1 16 C-1.14811394 12.77782908 -1.63793043 10.46300955 -2.33984375 6.7421875 C-2.55769531 6.16726562 -2.77554687 5.59234375 -3 5 C-3.99 4.67 -4.98 4.34 -6 4 C-4.02 2.68 -2.04 1.36 0 0 Z " fill="#385462" transform="translate(353,166)"/>
<path d="M0 0 C0.78375 0.04125 1.5675 0.0825 2.375 0.125 C1.055 2.435 -0.265 4.745 -1.625 7.125 C-2.615 7.125 -3.605 7.125 -4.625 7.125 C-4.75 4.75 -4.75 4.75 -4.625 2.125 C-2.625 0.125 -2.625 0.125 0 0 Z " fill="#D5E2E6" transform="translate(381.625,162.875)"/>
<path d="M0 0 C-3.75 3 -3.75 3 -6 3 C-6 3.66 -6 4.32 -6 5 C-7.65 4.67 -9.3 4.34 -11 4 C-7.64918101 0.31409911 -4.96535219 -1.77334007 0 0 Z " fill="#A6C7D2" transform="translate(266,135)"/>
<path d="M0 0 C1.65 0 3.3 0 5 0 C5 0.66 5 1.32 5 2 C5.66 2 6.32 2 7 2 C7.66 3.98 8.32 5.96 9 8 C8.01 8 7.02 8 6 8 C4.39453125 6.25 4.39453125 6.25 2.8125 4 C2.28269531 3.2575 1.75289062 2.515 1.20703125 1.75 C0.80871094 1.1725 0.41039062 0.595 0 0 Z " fill="#419D9D" transform="translate(221,97)"/>
<path d="M0 0 C3.9492568 0.55105909 7.34920174 1.38935371 11 3 C10.34 3.66 9.68 4.32 9 5 C5.62008426 4.6442194 2.95711562 3.64284201 0 2 C0 1.34 0 0.68 0 0 Z " fill="#255E65" transform="translate(249,89)"/>
<path d="M0 0 C0.99 0.33 1.98 0.66 3 1 C3 1.66 3 2.32 3 3 C3.639375 3.5775 4.27875 4.155 4.9375 4.75 C7.44350418 7.48382274 7.66980509 9.36785602 8 13 C0 3.28571429 0 3.28571429 0 0 Z " fill="#556777" transform="translate(222,236)"/>
<path d="M0 0 C0.95465783 2.16967689 1.14401212 3.56328793 0.3984375 5.82421875 C-0.35870385 7.5684743 -1.17609198 9.28627131 -2 11 C-2.99 11 -3.98 11 -5 11 C-4.54917531 9.53932801 -4.08906463 8.08151968 -3.625 6.625 C-3.36976563 5.81289062 -3.11453125 5.00078125 -2.8515625 4.1640625 C-2 2 -2 2 0 0 Z " fill="#2D4855" transform="translate(326,188)"/>
<path d="M0 0 C0.33 3.3 0.66 6.6 1 10 C0.34 10 -0.32 10 -1 10 C-1.20625 8.88625 -1.4125 7.7725 -1.625 6.625 C-2.61628301 2.73400805 -2.61628301 2.73400805 -6.125 1.5625 C-7.07375 1.376875 -8.0225 1.19125 -9 1 C-9 0.67 -9 0.34 -9 0 C-5.32431536 -0.91892116 -3.83619425 -0.95904856 0 0 Z " fill="#1E3B49" transform="translate(390,161)"/>
<path d="M0 0 C0 3.77910478 -0.99703962 4.46106101 -3.5 7.1875 C-4.47453125 8.26064453 -4.47453125 8.26064453 -5.46875 9.35546875 C-5.9740625 9.89816406 -6.479375 10.44085938 -7 11 C-8 8 -8 8 -7 5 C-5.37109375 3.61328125 -5.37109375 3.61328125 -3.4375 2.3125 C-2.79683594 1.87550781 -2.15617187 1.43851562 -1.49609375 0.98828125 C-1.00238281 0.66214844 -0.50867188 0.33601563 0 0 Z " fill="#496372" transform="translate(446,117)"/>
<path d="M0 0 C0.99 0.33 1.98 0.66 3 1 C2.34 3.97 1.68 6.94 1 10 C0.67 8.68 0.34 7.36 0 6 C-0.99 5.67 -1.98 5.34 -3 5 C-2.01 3.35 -1.02 1.7 0 0 Z " fill="#697881" transform="translate(452,94)"/>
<path d="M0 0 C0.33 0 0.66 0 1 0 C1 2.64 1 5.28 1 8 C1.99 7.67 2.98 7.34 4 7 C4 8.32 4 9.64 4 11 C3.01 11.66 2.02 12.32 1 13 C-0.32229189 10.35541621 -0.09677194 8.32238699 -0.0625 5.375 C-0.05347656 4.37210938 -0.04445312 3.36921875 -0.03515625 2.3359375 C-0.02355469 1.56507813 -0.01195312 0.79421875 0 0 Z " fill="#254555" transform="translate(216,179)"/>
<path d="M0 0 C2.97 0.495 2.97 0.495 6 1 C6 1.66 6 2.32 6 3 C6.66 3 7.32 3 8 3 C8 3.66 8 4.32 8 5 C9.98 5 11.96 5 14 5 C14 5.33 14 5.66 14 6 C8.29964499 6.4560284 5.45215753 5.60412752 1 2 C0.67 1.34 0.34 0.68 0 0 Z " fill="#389B96" transform="translate(323,166)"/>
<path d="M0 0 C1.98 0.495 1.98 0.495 4 1 C4 3.62834278 3.80210238 6.08186701 3.5 8.6875 C3.4071875 9.49574219 3.314375 10.30398437 3.21875 11.13671875 C3.1465625 11.75160156 3.074375 12.36648437 3 13 C2.34 12.67 1.68 12.34 1 12 C1.04125 11.071875 1.0825 10.14375 1.125 9.1875 C1.27136339 5.84190281 1.27136339 5.84190281 -1 3 C-0.67 2.67 -0.34 2.34 0 2 C0 1.34 0 0.68 0 0 Z " fill="#355162" transform="translate(296,159)"/>
<path d="M0 0 C0.66 0.33 1.32 0.66 2 1 C-0.59405119 3.87198525 -2.20339094 5.2881358 -6 6 C-7.3479743 6.63654342 -8.68596724 7.29605388 -10 8 C-7.1524798 3.94775971 -4.63339243 1.8130666 0 0 Z " fill="#324A55" transform="translate(279,148)"/>
<path d="M0 0 C5.04424468 0.44508041 7.44443409 2.60980925 11 6 C11 6.66 11 7.32 11 8 C8.525 7.01 8.525 7.01 6 6 C6 5.01 6 4.02 6 3 C5.195625 2.87625 4.39125 2.7525 3.5625 2.625 C2.716875 2.41875 1.87125 2.2125 1 2 C0.67 1.34 0.34 0.68 0 0 Z " fill="#DBF6F6" transform="translate(274,130)"/>
<path d="M0 0 C3.9492568 0.55105909 7.34920174 1.38935371 11 3 C11 3.66 11 4.32 11 5 C6.94393835 4.53199289 3.53411321 4.12046792 0 2 C0 1.34 0 0.68 0 0 Z " fill="#EBF5F7" transform="translate(254,122)"/>
<path d="M0 0 C0.66 0 1.32 0 2 0 C3.00496852 3.01490557 3.10335303 5.04181692 3.0625 8.1875 C3.05347656 9.08855469 3.04445313 9.98960938 3.03515625 10.91796875 C3.02355469 11.60503906 3.01195312 12.29210937 3 13 C2.34 13 1.68 13 1 13 C0.67 8.71 0.34 4.42 0 0 Z " fill="#347E80" transform="translate(453,60)"/>
<path d="M0 0 C0.33 0.66 0.66 1.32 1 2 C2.32 1.67 3.64 1.34 5 1 C5 1.66 5 2.32 5 3 C5.9590625 3.1546875 5.9590625 3.1546875 6.9375 3.3125 C7.618125 3.539375 8.29875 3.76625 9 4 C9.33 4.99 9.66 5.98 10 7 C5.94718288 5.77472971 2.55639236 4.30119506 -1 2 C-0.67 1.34 -0.34 0.68 0 0 Z " fill="#DBE7EA" transform="translate(302,239)"/>
<path d="M0 0 C0.99 0.33 1.98 0.66 3 1 C3.33 3.31 3.66 5.62 4 8 C3.01 8 2.02 8 1 8 C1 7.34 1 6.68 1 6 C0.34 6 -0.32 6 -1 6 C-0.67 4.02 -0.34 2.04 0 0 Z " fill="#0D2D3D" transform="translate(235,154)"/>
<path d="M0 0 C1 3 1 3 0 6 C-0.66 6 -1.32 6 -2 6 C-2.33 7.65 -2.66 9.3 -3 11 C-3.66 11 -4.32 11 -5 11 C-4.46884894 6.48521602 -2.63379708 3.65333143 0 0 Z " fill="#48606D" transform="translate(232,134)"/>
<path d="M0 0 C1.39195915 4.17587745 -0.17676781 6.13474776 -2 10 C-2.66 10 -3.32 10 -4 10 C-4 9.01 -4 8.02 -4 7 C-4.66 6.67 -5.32 6.34 -6 6 C-5.195625 5.38125 -4.39125 4.7625 -3.5625 4.125 C-0.96125481 2.25835959 -0.96125481 2.25835959 0 0 Z " fill="#385261" transform="translate(451,104)"/>
<path d="M0 0 C0.6875 1.8125 0.6875 1.8125 1 4 C-0.1875 5.75 -0.1875 5.75 -2 7 C-3.32 7 -4.64 7 -6 7 C-4.60667426 3.63279613 -3.0210714 2.0140476 0 0 Z " fill="#32676F" transform="translate(440,74)"/>
<path d="M0 0 C0.66 0 1.32 0 2 0 C2.33 2.64 2.66 5.28 3 8 C2.67 8 2.34 8 2 8 C1.67 9.65 1.34 11.3 1 13 C0.67 13 0.34 13 0 13 C0 8.71 0 4.42 0 0 Z " fill="#22686A" transform="translate(213,60)"/>
<path d="M0 0 C0.99 0.33 1.98 0.66 3 1 C3 1.66 3 2.32 3 3 C3.75150023 6.27773504 3.75150023 6.27773504 7 8 C5.35 7.67 3.7 7.34 2 7 C2 6.34 2 5.68 2 5 C1.01 4.67 0.02 4.34 -1 4 C-0.67 2.68 -0.34 1.36 0 0 Z " fill="#4D616D" transform="translate(329,313)"/>
<path d="M0 0 C0.78375 0.04125 1.5675 0.0825 2.375 0.125 C1.385 0.62 1.385 0.62 0.375 1.125 C0.705 3.105 1.035 5.085 1.375 7.125 C-0.605 5.475 -2.585 3.825 -4.625 2.125 C-2.625 0.125 -2.625 0.125 0 0 Z " fill="#435E6E" transform="translate(324.625,306.875)"/>
<path d="M0 0 C0 0.66 0 1.32 0 2 C-0.99 2 -1.98 2 -3 2 C-3.33 3.32 -3.66 4.64 -4 6 C-5.65 5.67 -7.3 5.34 -9 5 C-6.45523312 2.20075644 -3.92372883 0 0 0 Z " fill="#354C58" transform="translate(356,247)"/>
<path d="M0 0 C3.465 1.485 3.465 1.485 7 3 C6.67 4.32 6.34 5.64 6 7 C4.125 6.875 4.125 6.875 2 6 C0.75 2.9375 0.75 2.9375 0 0 Z " fill="#183B4A" transform="translate(255,216)"/>
<path d="M0 0 C0.33 0 0.66 0 1 0 C1 1.65 1 3.3 1 5 C2.98 4.67 4.96 4.34 7 4 C3.93882432 6.62386487 3.26826873 7 -1 7 C-1.04254356 5.00045254 -1.04080783 2.99958364 -1 1 C-0.67 0.67 -0.34 0.34 0 0 Z " fill="#1B8B88" transform="translate(336,164)"/>
<path d="M0 0 C1 4 1 4 0.00390625 5.703125 C-1.33072917 7.13541667 -2.66536458 8.56770833 -4 10 C-4.66 9.67 -5.32 9.34 -6 9 C-4.02 6.03 -2.04 3.06 0 0 Z " fill="#D0DFE4" transform="translate(246,147)"/>
<path d="M0 0 C0 3 0 3 -1.3125 4.60546875 C-1.869375 5.12753906 -2.42625 5.64960938 -3 6.1875 C-3.556875 6.71730469 -4.11375 7.24710938 -4.6875 7.79296875 C-5.120625 8.19128906 -5.55375 8.58960938 -6 9 C-6.99 8.67 -7.98 8.34 -9 8 C-8.071875 7.236875 -7.14375 6.47375 -6.1875 5.6875 C-4.01723899 3.88151448 -1.94431935 2.0523371 0 0 Z " fill="#077C7F" transform="translate(358,124)"/>
<path d="M0 0 C4.95621512 0.49562151 8.70281375 1.44215104 13 4 C13.33 4.66 13.66 5.32 14 6 C9.1008651 4.70022952 4.62440425 3.07626313 0 1 C0 0.67 0 0.34 0 0 Z " fill="#3F9D99" transform="translate(254,119)"/>
<path d="M0 0 C4.75 1.875 4.75 1.875 7 3 C7 3.66 7 4.32 7 5 C4.6568787 4.74438677 2.32156597 4.40729228 0 4 C-0.33 3.34 -0.66 2.68 -1 2 C-0.67 1.34 -0.34 0.68 0 0 Z " fill="#074B53" transform="translate(234,81)"/>
<path d="M0 0 C-0.33 1.98 -0.66 3.96 -1 6 C-2.32 6.33 -3.64 6.66 -5 7 C-5.33 6.01 -5.66 5.02 -6 4 C-5.34 4 -4.68 4 -4 4 C-4 3.01 -4 2.02 -4 1 C-2 0 -2 0 0 0 Z " fill="#2E5264" transform="translate(432,238)"/>
<path d="M0 0 C5.94 0.33 11.88 0.66 18 1 C18 1.33 18 1.66 18 2 C15.93906592 2.223293 13.8761161 2.42802887 11.8125 2.625 C10.66394531 2.74101562 9.51539063 2.85703125 8.33203125 2.9765625 C4.96669584 3.00023426 2.98778294 2.47419799 0 1 C0 0.67 0 0.34 0 0 Z " fill="#DCECF0" transform="translate(370,214)"/>
<path d="M0 0 C0.5625 1.9375 0.5625 1.9375 1 4 C0 5 0 5 -2.5625 5.0625 C-3.7690625 5.0315625 -3.7690625 5.0315625 -5 5 C-5.33 4.01 -5.66 3.02 -6 2 C-2.25 0.875 -2.25 0.875 0 2 C0 1.34 0 0.68 0 0 Z " fill="#EDF8FB" transform="translate(386,169)"/>
<path d="M0 0 C1.98 0 3.96 0 6 0 C6.33 0.99 6.66 1.98 7 3 C7.66 3 8.32 3 9 3 C8.34 4.32 7.68 5.64 7 7 C5.83040013 6.02433888 4.66438823 5.044375 3.5 4.0625 C2.8503125 3.51722656 2.200625 2.97195312 1.53125 2.41015625 C1.0259375 1.94480469 0.520625 1.47945312 0 1 C0 0.67 0 0.34 0 0 Z " fill="#2D9693" transform="translate(312,157)"/>
<path d="M0 0 C0.66 0.33 1.32 0.66 2 1 C2 1.66 2 2.32 2 3 C1.34 3 0.68 3 0 3 C-0.66 4.32 -1.32 5.64 -2 7 C-2.66 6.01 -3.32 5.02 -4 4 C-4.99 3.67 -5.98 3.34 -7 3 C-4.69631264 1.93347808 -2.35981813 0.93578995 0 0 Z " fill="#568492" transform="translate(419,87)"/>
<path d="M0 0 C0.99 0 1.98 0 3 0 C1.90931332 3.77545388 1.0916909 6.47043472 -2 9 C-2.25 3.375 -2.25 3.375 0 0 Z " fill="#419B9B" transform="translate(449,87)"/>
<path d="M0 0 C1.98 0.66 3.96 1.32 6 2 C6 3.32 6 4.64 6 6 C5.01 6.33 4.02 6.66 3 7 C3 6.34 3 5.68 3 5 C2.34 4.67 1.68 4.34 1 4 C0.375 1.9375 0.375 1.9375 0 0 Z " fill="#486A7A" transform="translate(279,272)"/>
<path d="M0 0 C0.66 0.99 1.32 1.98 2 3 C-0.97 5.475 -0.97 5.475 -4 8 C-4.66 7.34 -5.32 6.68 -6 6 C-4.02 4.02 -2.04 2.04 0 0 Z " fill="#465D64" transform="translate(316,205)"/>
<path d="M0 0 C-2.64 1.65 -5.28 3.3 -8 5 C-8 3.35 -8 1.7 -8 0 C-4.71303767 -0.79953138 -3.28976808 -1.09658936 0 0 Z " fill="#20948B" transform="translate(380,139)"/>
<path d="M0 0 C2.05078125 0.03255208 4.1015625 0.06510417 6.15234375 0.09765625 C4.5289457 1.8064963 2.85915322 3.47212342 1.15234375 5.09765625 C0.49234375 5.09765625 -0.16765625 5.09765625 -0.84765625 5.09765625 C-0.84765625 4.43765625 -0.84765625 3.77765625 -0.84765625 3.09765625 C-1.50765625 2.43765625 -2.16765625 1.77765625 -2.84765625 1.09765625 C-1.84765625 0.09765625 -1.84765625 0.09765625 0 0 Z " fill="#198D8C" transform="translate(383.84765625,129.90234375)"/>
<path d="M0 0 C0.99 0.33 1.98 0.66 3 1 C-0.99613521 4.71069698 -3.37082652 6.59791618 -9 7 C-6.36797295 4.0755255 -3.39162974 1.97845068 0 0 Z " fill="#05777A" transform="translate(370,116)"/>
<path d="M0 0 C1.27875 0.103125 2.5575 0.20625 3.875 0.3125 C4.95394531 0.39951172 4.95394531 0.39951172 6.0546875 0.48828125 C8 1 8 1 10 4 C8.72125 3.896875 7.4425 3.79375 6.125 3.6875 C5.04605469 3.60048828 5.04605469 3.60048828 3.9453125 3.51171875 C2 3 2 3 0 0 Z " fill="#3C5566" transform="translate(301,297)"/>
<path d="M0 0 C1.32 0.33 2.64 0.66 4 1 C4 1.66 4 2.32 4 3 C5.65 3 7.3 3 9 3 C9 3.99 9 4.98 9 6 C5.59687262 4.94124926 2.98646769 3.99097846 0 2 C0 1.34 0 0.68 0 0 Z " fill="#4F6E7B" transform="translate(286,288)"/>
<path d="M0 0 C0.66 0 1.32 0 2 0 C1.125 5.75 1.125 5.75 0 8 C-0.66 8 -1.32 8 -2 8 C-2 6.35 -2 4.7 -2 3 C-1.34 3 -0.68 3 0 3 C0 2.01 0 1.02 0 0 Z " fill="#3E5864" transform="translate(446,230)"/>
<path d="M0 0 C1.98 0 3.96 0 6 0 C6.33 0.66 6.66 1.32 7 2 C4.03 2.66 1.06 3.32 -2 4 C-1.34 2.68 -0.68 1.36 0 0 Z " fill="#24404E" transform="translate(281,226)"/>
<path d="M0 0 C2.88437779 1.29299694 4.87219421 2.65941363 7 5 C4 6 4 6 1.8125 5.0625 C1.214375 4.711875 0.61625 4.36125 0 4 C0 2.68 0 1.36 0 0 Z " fill="#AAC7D2" transform="translate(316,173)"/>
<path d="M0 0 C1.32 0 2.64 0 4 0 C4 0.66 4 1.32 4 2 C4.99 2.33 5.98 2.66 7 3 C7 3.66 7 4.32 7 5 C4.0625 4.1875 4.0625 4.1875 1 3 C0.67 2.01 0.34 1.02 0 0 Z " fill="#EEF2F3" transform="translate(292,146)"/>
<path d="M0 0 C2.125 0.375 2.125 0.375 4 1 C3.2575 1.4125 2.515 1.825 1.75 2.25 C-0.90171685 3.93745618 -2.86674014 5.70872089 -5 8 C-5.66 7.67 -6.32 7.34 -7 7 C-4.66666667 4.66666667 -2.33333333 2.33333333 0 0 Z " fill="#D5E4E9" transform="translate(254,139)"/>
<path d="M0 0 C-0.75 1.9375 -0.75 1.9375 -2 4 C-4.125 4.75 -4.125 4.75 -6 5 C-6.33 4.01 -6.66 3.02 -7 2 C-4.35261084 0.5393715 -3.10551666 0 0 0 Z " fill="#ECFAFA" transform="translate(387,136)"/>
<path d="M0 0 C1.98 0.495 1.98 0.495 4 1 C4 4 4 4 2 7 C2 6.01 2 5.02 2 4 C1.01 3.67 0.02 3.34 -1 3 C-0.67 2.01 -0.34 1.02 0 0 Z " fill="#A7CAD1" transform="translate(228,105)"/>
<path d="M0 0 C0.99 0 1.98 0 3 0 C3.33 1.32 3.66 2.64 4 4 C2.68 4.33 1.36 4.66 0 5 C0 3.35 0 1.7 0 0 Z M-2 4 C-1.34 4.66 -0.68 5.32 0 6 C-0.66 6 -1.32 6 -2 6 C-2 5.34 -2 4.68 -2 4 Z " fill="#395B6B" transform="translate(240,245)"/>
<path d="M0 0 C0 3 0 3 -1.25 4.75 C-3 6 -3 6 -5.1875 5.6875 C-5.785625 5.460625 -6.38375 5.23375 -7 5 C-2.25 1.125 -2.25 1.125 0 0 Z " fill="#2D4452" transform="translate(367,240)"/>
<path d="M0 0 C1.4606285 2.64738916 2 3.89448334 2 7 C1.01 7 0.02 7 -1 7 C-1.33 5.02 -1.66 3.04 -2 1 C-1.34 0.67 -0.68 0.34 0 0 Z " fill="#334B5E" transform="translate(222,229)"/>
<path d="M0 0 C3.6875 1.375 3.6875 1.375 7 3 C5.375 4.1875 5.375 4.1875 3 5 C-0.25 3.625 -0.25 3.625 -3 2 C-2.01 1.34 -1.02 0.68 0 0 Z " fill="#3F5966" transform="translate(362,215)"/>
<path d="M0 0 C0.33 1.32 0.66 2.64 1 4 C-1.97 6.475 -1.97 6.475 -5 9 C-5.66 8.67 -6.32 8.34 -7 8 C-4.69 5.36 -2.38 2.72 0 0 Z " fill="#D1E0E3" transform="translate(311,188)"/>
<path d="M0 0 C3.16115776 1.36983503 3.9927092 1.9890638 6 5 C5.67 5.99 5.34 6.98 5 8 C4.67 7.01 4.34 6.02 4 5 C1.99983534 3.79117904 1.99983534 3.79117904 0 3 C0 2.01 0 1.02 0 0 Z " fill="#DAE8EB" transform="translate(398,152)"/>
<path d="M0 0 C-2.31 1.65 -4.62 3.3 -7 5 C-6.67 3.35 -6.34 1.7 -6 0 C-3 -1 -3 -1 0 0 Z " fill="#29948F" transform="translate(371,146)"/>
<path d="M0 0 C2.64 1.98 5.28 3.96 8 6 C7.01 6.33 6.02 6.66 5 7 C4.01 6.34 3.02 5.68 2 5 C2 4.34 2 3.68 2 3 C1.01 3 0.02 3 -1 3 C-0.67 2.01 -0.34 1.02 0 0 Z " fill="#CEF5F1" transform="translate(294,143)"/>
<path d="M0 0 C1.98 0.66 3.96 1.32 6 2 C6.33 1.34 6.66 0.68 7 0 C8.32 1.32 9.64 2.64 11 4 C5.62694301 4.35233161 5.62694301 4.35233161 3 4 C1 2 1 2 0 0 Z " fill="#CBE4E7" transform="translate(279,136)"/>
<path d="M0 0 C2.31 0.66 4.62 1.32 7 2 C6.67 2.99 6.34 3.98 6 5 C3.5625 4.1875 3.5625 4.1875 1 3 C0.67 2.01 0.34 1.02 0 0 Z " fill="#EAF5F5" transform="translate(266,127)"/>
<path d="M0 0 C2.0625 0.4375 2.0625 0.4375 4 1 C1.03 3.475 1.03 3.475 -2 6 C-1.125 1.125 -1.125 1.125 0 0 Z " fill="#476671" transform="translate(344,308)"/>
<path d="M0 0 C0.66 0.33 1.32 0.66 2 1 C2 1.99 2 2.98 2 4 C0.68 4 -0.64 4 -2 4 C-2.66 3.34 -3.32 2.68 -4 2 C-2.125 0.9375 -2.125 0.9375 0 0 Z " fill="#3C5968" transform="translate(301,217)"/>
<path d="M0 0 C2.97 1.98 2.97 1.98 6 4 C5.01 4.33 4.02 4.66 3 5 C2.67 5.66 2.34 6.32 2 7 C0.4375 5.75 0.4375 5.75 -1 4 C-0.6875 1.8125 -0.6875 1.8125 0 0 Z " fill="#284954" transform="translate(322,172)"/>
<path d="M0 0 C0.33 0.66 0.66 1.32 1 2 C1.66 2 2.32 2 3 2 C3 2.99 3 3.98 3 5 C1.35 5.66 -0.3 6.32 -2 7 C-1.125 2.25 -1.125 2.25 0 0 Z " fill="#344D5D" transform="translate(226,145)"/>
<path d="M0 0 C-4.44 2.96 -4.44 2.96 -7 4 C-7.99 3.67 -8.98 3.34 -10 3 C-9 1 -9 1 -7.25 0.375 C-4.79549443 -0.03408426 -2.4840589 -0.06900164 0 0 Z " fill="#259089" transform="translate(420,116)"/>
<path d="M0 0 C-0.66 0 -1.32 0 -2 0 C-1.67 0.99 -1.34 1.98 -1 3 C-2.32 3.33 -3.64 3.66 -5 4 C-5 3.34 -5 2.68 -5 2 C-5.66 1.67 -6.32 1.34 -7 1 C-3.375 -1.125 -3.375 -1.125 0 0 Z " fill="#3E9293" transform="translate(287,96)"/>
<path d="M0 0 C1.98 0.495 1.98 0.495 4 1 C3.01 1.495 3.01 1.495 2 2 C2 3.32 2 4.64 2 6 C1.01 6 0.02 6 -1 6 C-0.67 4.02 -0.34 2.04 0 0 Z " fill="#1F3C4C" transform="translate(319,302)"/>
<path d="M0 0 C1.65 0 3.3 0 5 0 C5.33 0.99 5.66 1.98 6 3 C4.68 3.33 3.36 3.66 2 4 C1.34 2.68 0.68 1.36 0 0 Z " fill="#1F3F4F" transform="translate(294,220)"/>
<path d="M0 0 C0.99 0.33 1.98 0.66 3 1 C0.03 3.475 0.03 3.475 -3 6 C-3.33 5.01 -3.66 4.02 -4 3 C-2.1875 1.4375 -2.1875 1.4375 0 0 Z " fill="#C8E3EA" transform="translate(310,208)"/>
<path d="M0 0 C1.32 0.99 2.64 1.98 4 3 C3.01 3.99 2.02 4.98 1 6 C0.01 4.35 -0.98 2.7 -2 1 C-1.34 0.67 -0.68 0.34 0 0 Z " fill="#E6F1F2" transform="translate(351,200)"/>
<path d="M0 0 C2.475 0.99 2.475 0.99 5 2 C4.67 2.66 4.34 3.32 4 4 C1.4375 4.625 1.4375 4.625 -1 5 C-0.67 3.35 -0.34 1.7 0 0 Z " fill="#CFE9F1" transform="translate(242,194)"/>
<path d="M0 0 C0.33 0 0.66 0 1 0 C1 1.98 1 3.96 1 6 C-0.65 6.66 -2.3 7.32 -4 8 C-4 7.34 -4 6.68 -4 6 C-3.34 6 -2.68 6 -2 6 C-1.34 4.02 -0.68 2.04 0 0 Z " fill="#D7EBF0" transform="translate(426,188)"/>
<path d="M0 0 C0.66 0 1.32 0 2 0 C2 0.66 2 1.32 2 2 C2.66 2 3.32 2 4 2 C4 2.99 4 3.98 4 5 C2.68 5 1.36 5 0 5 C-0.33 4.01 -0.66 3.02 -1 2 C-0.67 1.34 -0.34 0.68 0 0 Z " fill="#0A8482" transform="translate(331,166)"/>
<path d="M0 0 C0 0.66 0 1.32 0 2 C-1.96147874 3.38938077 -3.96166576 4.7260411 -6 6 C-6 4.68 -6 3.36 -6 2 C-3 0 -3 0 0 0 Z " fill="#D8E5E8" transform="translate(367,154)"/>
<path d="M0 0 C1.32 0.33 2.64 0.66 4 1 C3.34 3.31 2.68 5.62 2 8 C-0.1519437 4.77208445 -0.20086443 3.71599191 0 0 Z " fill="#1B3949" transform="translate(238,152)"/>
<path d="M0 0 C0.66 1.32 1.32 2.64 2 4 C-0.31 4.33 -2.62 4.66 -5 5 C-3.35 3.35 -1.7 1.7 0 0 Z " fill="#254250" transform="translate(373,150)"/>
<path d="M0 0 C1.98 0.66 3.96 1.32 6 2 C6 3.32 6 4.64 6 6 C5.01 6.495 5.01 6.495 4 7 C4 5.68 4 4.36 4 3 C2.68 2.67 1.36 2.34 0 2 C0 1.34 0 0.68 0 0 Z " fill="#E1ECEF" transform="translate(270,144)"/>
<path d="M0 0 C1.32 1.32 2.64 2.64 4 4 C2.02 4.66 0.04 5.32 -2 6 C-1.49396008 3.83125748 -1.00016187 2.00032373 0 0 Z " fill="#A8C8D5" transform="translate(280,143)"/>
<path d="M0 0 C0 3 0 3 -2.5 5.6875 C-3.325 6.450625 -4.15 7.21375 -5 8 C-3.375 2.25 -3.375 2.25 0 0 Z " fill="#09797F" transform="translate(348,134)"/>
<path d="M0 0 C0.66 0 1.32 0 2 0 C2.33 1.32 2.66 2.64 3 4 C1.02 4.33 -0.96 4.66 -3 5 C-1.625 2.5 -1.625 2.5 0 0 Z " fill="#0A2D3E" transform="translate(262,129)"/>
<path d="M0 0 C0.53625 0.226875 1.0725 0.45375 1.625 0.6875 C-3.79038462 3.76442308 -3.79038462 3.76442308 -6.75 3.375 C-7.554375 3.0346875 -7.554375 3.0346875 -8.375 2.6875 C-2.95961538 -0.38942308 -2.95961538 -0.38942308 0 0 Z " fill="#BAE8E7" transform="translate(403.375,124.3125)"/>
<path d="M0 0 C3.875 1.75 3.875 1.75 5 4 C3.35 4.33 1.7 4.66 0 5 C0 4.34 0 3.68 0 3 C-0.66 2.67 -1.32 2.34 -2 2 C-1.34 1.34 -0.68 0.68 0 0 Z " fill="#B0D8DE" transform="translate(430,110)"/>
<path d="M0 0 C1.32 0.33 2.64 0.66 4 1 C3.67 1.99 3.34 2.98 3 4 C2.01 4.33 1.02 4.66 0 5 C-0.99 4.01 -1.98 3.02 -3 2 C-2.01 2 -1.02 2 0 2 C0 1.34 0 0.68 0 0 Z " fill="#0A4C58" transform="translate(433,80)"/>
</svg>
